<?xml version="1.0" standalone="no"?>
<!DOCTYPE svg PUBLIC "-//W3C//DTD SVG 20010904//EN"
 "http://www.w3.org/TR/2001/REC-SVG-20010904/DTD/svg10.dtd">
<svg version="1.0" xmlns="http://www.w3.org/2000/svg"
 width="760.000000pt" height="760.000000pt" viewBox="0 0 760.000000 760.000000"
 preserveAspectRatio="xMidYMid meet">
<metadata>
Created by potrace 1.14, written by Peter Selinger 2001-2017
</metadata>
<g transform="translate(0.000000,760.000000) scale(0.100000,-0.100000)"
fill="#000000" stroke="none">
<path d="M0 3800 l0 -3800 3800 0 3800 0 0 3800 0 3800 -3800 0 -3800 0 0
-3800z m7296 3553 c-10 -10 -19 5 -10 18 6 11 8 11 12 0 2 -7 1 -15 -2 -18z
m-1800 -59 c18 -14 18 -15 -5 -3 -20 9 -26 8 -33 -5 -5 -9 -14 -16 -20 -16 -6
0 -3 9 7 20 22 24 26 24 51 4z m-82 -3 c4 -5 3 -16 0 -25 -5 -13 -9 -14 -20
-5 -8 6 -14 18 -14 25 0 16 26 19 34 5z m92 -40 c-3 -4 3 -16 14 -26 11 -10
17 -22 14 -26 -8 -14 -24 -10 -18 4 3 8 -2 20 -10 27 -14 11 -14 30 0 30 3 0
3 -4 0 -9z m-108 -65 c-10 -7 -14 -16 -10 -21 4 -4 -8 -6 -25 -3 -32 4 -46 -6
-20 -15 6 -2 9 -8 5 -12 -11 -11 -28 4 -28 26 0 14 7 19 29 19 16 0 34 7 41
15 7 9 16 13 19 9 3 -3 -2 -11 -11 -18z m61 -17 c-9 -17 -7 -25 11 -44 23 -24
20 -45 -6 -45 -8 0 -13 4 -10 9 3 5 -1 11 -9 15 -19 7 -19 31 1 61 20 30 29
33 13 4z m-107 -152 c-8 -18 -25 -47 -37 -65 -22 -32 -23 -32 -29 -10 -6 22
-7 23 -21 4 -22 -29 -18 -14 9 34 13 23 26 38 28 33 3 -4 3 -2 2 5 -2 7 4 28
13 47 l17 35 17 -26 c15 -24 15 -29 1 -57z m78 58 c0 -3 -18 -41 -40 -85 -35
-69 -39 -85 -34 -125 4 -25 4 -45 1 -45 -4 0 -20 8 -36 18 -31 19 -29 48 2 36
20 -7 22 7 5 24 -9 9 -9 12 0 12 7 0 12 7 12 15 0 19 37 94 56 113 8 7 14 20
14 28 0 8 5 14 10 14 6 0 10 -2 10 -5z m-195 -154 c-4 -14 0 -23 17 -31 22
-11 22 -10 4 4 -11 9 -18 18 -15 20 2 2 14 -4 26 -13 29 -24 16 -48 -17 -31
-27 15 -29 13 -70 -83 -19 -43 -40 -83 -47 -89 -7 -6 -13 -18 -13 -27 0 -9 12
4 27 29 15 24 28 39 30 33 2 -6 -8 -28 -23 -49 -14 -22 -30 -49 -35 -62 -5
-14 -14 -20 -21 -16 -7 4 -8 3 -4 -5 4 -6 -12 -45 -35 -86 -46 -79 -65 -96
-28 -23 12 23 21 45 20 47 -2 2 3 7 9 11 7 4 9 13 6 19 -4 6 -12 9 -17 6 -13
-9 -11 15 7 85 8 34 14 63 12 65 -2 2 -115 -80 -251 -181 -263 -197 -281 -217
-209 -230 20 -3 84 -25 142 -47 57 -22 110 -40 117 -40 19 0 16 -12 -12 -57
-14 -22 -22 -40 -19 -40 4 0 2 -6 -3 -12 -9 -11 -50 -85 -93 -167 -7 -15 -15
-19 -19 -13 -4 7 -11 4 -19 -8 -10 -16 -9 -22 4 -32 8 -7 25 -21 36 -32 15
-14 22 -15 28 -6 6 10 22 8 71 -9 63 -21 117 -29 69 -10 -85 34 -150 76 -150
98 0 4 23 48 52 97 28 49 60 106 71 127 12 20 25 37 29 37 5 0 6 5 2 12 -4 7
-3 8 5 4 6 -4 9 -11 7 -14 -2 -4 26 -23 62 -42 84 -42 235 -142 285 -187 21
-18 43 -31 49 -27 6 4 8 3 4 -4 -3 -6 -2 -13 4 -17 6 -3 10 4 10 17 -2 83 -38
670 -43 674 -2 3 -26 -20 -52 -51 -31 -36 -55 -55 -70 -55 -17 0 -31 -18 -68
-90 -45 -86 -46 -92 -32 -114 11 -16 13 -26 5 -31 -6 -3 -8 -10 -5 -15 9 -14
-14 -50 -31 -50 -13 0 -13 4 3 31 17 29 17 31 0 40 -14 8 -16 14 -6 25 9 11 8
14 -5 14 -21 0 -21 -2 14 75 40 86 38 92 -7 19 -20 -32 -51 -83 -69 -113 -18
-30 -31 -57 -29 -61 2 -4 -2 -7 -9 -7 -8 0 17 53 59 126 40 69 101 176 135
236 34 61 60 102 56 93 -13 -40 6 -13 44 62 36 72 62 102 75 88 6 -6 -34 -81
-50 -93 -10 -8 -10 -13 1 -23 16 -14 48 -16 39 -2 -7 11 22 77 37 86 6 4 5 -3
-1 -14 -13 -25 -14 -32 -2 -32 5 0 12 12 15 26 4 15 9 25 11 23 2 -2 -3 -31
-11 -64 -15 -67 -17 -179 -5 -330 4 -55 5 -112 0 -128 -4 -15 -4 -25 0 -23 4
3 11 -74 15 -172 5 -134 11 -192 26 -240 15 -49 17 -68 9 -84 -6 -11 -9 -44
-7 -74 1 -30 0 -54 -4 -54 -5 0 -8 -10 -8 -22 0 -30 74 -75 94 -59 14 12 46 5
46 -9 0 -5 -8 -10 -17 -12 -14 -3 -10 -8 16 -22 26 -14 35 -15 41 -6 4 7 13 9
19 5 9 -5 9 -10 1 -20 -8 -10 13 -28 96 -80 59 -37 125 -80 147 -96 42 -30 63
-36 69 -18 2 5 36 -14 77 -43 282 -203 412 -310 393 -322 -6 -4 -17 4 -24 18
-8 16 -18 22 -25 18 -9 -6 0 -19 30 -43 62 -52 71 -56 65 -31 -5 17 6 11 48
-25 52 -45 62 -62 29 -49 -9 3 -14 9 -11 14 2 4 -4 13 -14 20 -11 6 -21 8 -24
3 -8 -12 91 -104 104 -96 8 5 6 13 -7 28 -10 12 -2 9 17 -8 19 -16 37 -31 40
-33 3 -2 -3 -8 -13 -14 -25 -13 -4 -38 32 -38 37 0 70 -25 55 -40 -9 -9 -14
-9 -19 1 -6 8 -4 10 5 4 9 -6 11 -4 5 4 -5 9 -11 9 -17 3 -7 -7 13 -37 63 -91
45 -50 77 -77 83 -71 11 11 -52 88 -72 89 -7 1 -10 6 -6 12 4 7 25 -9 55 -42
45 -50 62 -78 40 -64 -16 9 -24 -15 -10 -31 12 -14 14 -14 25 1 11 14 14 13
33 -11 25 -32 27 -44 6 -44 -8 0 -15 -5 -15 -11 0 -7 9 -9 24 -5 18 4 28 0 41
-20 11 -17 12 -24 4 -18 -20 12 -39 14 -39 4 0 -5 12 -29 28 -54 22 -36 31
-44 49 -39 20 4 26 -2 48 -48 14 -30 25 -59 25 -65 0 -17 -28 -25 -34 -11 -3
7 -4 3 -3 -8 2 -11 7 -19 13 -18 5 1 15 3 23 5 8 1 17 -5 19 -14 2 -12 -5 -19
-21 -23 -18 -5 -23 -12 -20 -26 4 -14 11 -17 29 -13 23 6 24 4 24 -41 0 -42
-2 -46 -22 -43 -11 2 -23 -3 -26 -11 -4 -11 2 -12 23 -7 26 7 27 6 21 -21 -10
-39 -44 -104 -69 -131 -34 -36 -113 -83 -175 -103 -31 -10 -51 -18 -44 -18 6
-1 12 -6 12 -11 0 -7 -6 -7 -19 0 -11 5 -30 10 -43 9 l-23 -1 23 -6 c12 -4
-26 -8 -85 -9 -59 -1 -109 -6 -110 -10 -6 -16 -362 12 -528 42 -771 138 -1718
515 -2580 1028 -303 181 -655 425 -880 611 -187 155 -420 388 -514 514 -24 33
-41 48 -44 40 -3 -7 -6 0 -6 15 -1 16 -5 26 -10 23 -5 -3 -12 1 -15 10 -3 9
-2 12 5 8 6 -3 0 11 -13 32 -34 56 -95 218 -90 237 1 5 -2 6 -7 3 -23 -15 -36
114 -15 155 7 15 11 29 7 32 -8 9 41 89 73 117 21 18 24 19 11 4 -10 -12 -15
-28 -11 -38 8 -21 13 -20 40 5 21 20 21 23 7 37 -14 14 -13 18 8 35 24 19 24
19 35 -8 7 -18 14 -24 18 -16 4 7 2 19 -5 27 -10 13 -10 17 2 25 21 13 37 11
47 -7 6 -11 16 -14 31 -9 21 6 21 8 6 25 -15 16 -14 18 9 24 13 3 31 8 39 12
9 3 16 -3 20 -15 3 -15 13 -21 31 -21 26 0 35 13 16 25 -21 13 -9 25 24 25 26
0 36 -5 41 -20 3 -11 13 -20 22 -20 14 0 14 2 0 18 -34 38 -8 44 48 12 24 -13
52 -20 83 -19 67 2 255 -10 337 -22 119 -17 374 -69 495 -100 63 -16 123 -31
133 -33 10 -2 17 2 17 10 0 9 -12 14 -35 14 -19 0 -35 5 -35 11 0 8 12 9 37 4
46 -8 55 -13 48 -26 -4 -5 -1 -9 5 -9 6 0 9 -4 5 -10 -3 -5 14 -14 37 -20 74
-20 366 -120 518 -178 80 -30 172 -65 204 -77 34 -13 54 -25 47 -29 -6 -4 -16
-4 -23 0 -6 4 -8 3 -5 -3 4 -6 -4 -18 -18 -27 -14 -9 -25 -14 -25 -11 0 3 -10
-4 -22 -16 -21 -19 -30 -21 -103 -14 -251 21 -322 24 -540 22 -132 0 -205 -3
-162 -4 59 -3 77 -7 77 -18 0 -11 11 -15 39 -15 23 0 44 -6 51 -15 7 -9 19
-14 26 -11 7 3 15 -1 17 -8 3 -7 28 -16 56 -20 28 -4 51 -12 51 -17 0 -6 7 -8
16 -5 8 3 13 2 10 -3 -3 -5 15 -14 40 -20 24 -6 42 -16 39 -21 -3 -5 0 -7 8
-4 8 3 19 -2 26 -10 7 -8 21 -12 32 -9 16 5 18 8 7 15 -9 7 -8 8 5 4 10 -3 24
-6 30 -6 7 -1 -1 -7 -18 -15 -16 -7 -23 -14 -15 -14 8 -1 28 6 44 14 16 9 31
13 33 11 6 -6 -59 -41 -70 -38 -5 1 -6 -2 -3 -7 4 -5 -11 -22 -31 -37 -51 -38
-63 -49 -35 -34 42 21 34 3 -12 -31 -50 -35 -59 -47 -24 -28 49 26 446 312
497 358 31 27 -17 -5 -232 -158 -87 -62 -161 -111 -163 -108 -3 3 17 21 43 40
26 20 61 49 76 66 15 17 33 28 40 25 7 -2 30 12 52 32 22 20 40 35 40 33 0 -2
39 23 87 55 48 32 85 63 81 69 -3 5 -2 7 4 4 5 -3 22 5 36 19 25 23 29 24 43
9 9 -8 20 -13 25 -10 12 8 12 32 -1 40 -6 4 -7 -1 -3 -12 4 -13 3 -15 -5 -8
-16 15 4 85 30 108 14 11 37 17 73 17 l53 0 279 209 c290 217 299 224 383 329
50 61 88 83 75 43z m-2845 -276 c10 -12 10 -15 -3 -15 -8 0 -20 7 -27 15 -10
12 -10 15 3 15 8 0 20 -7 27 -15z m30 5 c0 -5 -2 -10 -4 -10 -3 0 -8 5 -11 10
-3 6 -1 10 4 10 6 0 11 -4 11 -10z m87 4 c-3 -3 -12 -4 -19 -1 -8 3 -5 6 6 6
11 1 17 -2 13 -5z m78 -15 c12 -19 -5 -23 -22 -6 -16 16 -16 17 -1 17 9 0 20
-5 23 -11z m1915 -263 c0 -3 -4 -8 -10 -11 -5 -3 -10 -1 -10 4 0 6 5 11 10 11
6 0 10 -2 10 -4z m457 -24 c-10 -10 -14 -23 -10 -27 5 -5 0 -3 -9 4 -9 7 -23
9 -29 5 -9 -5 -8 -10 4 -19 19 -14 12 -56 -8 -49 -25 10 -26 37 -3 70 15 23
31 34 47 34 23 0 23 -1 8 -18z m-3128 -197 c0 -5 -4 -3 -9 5 -5 8 -9 22 -9 30
0 16 17 -16 18 -35z m40 -112 c2 -2 2 -5 -1 -8 -2 -3 -18 10 -34 28 l-29 32
30 -25 c17 -14 32 -26 34 -27z m1946 -203 c-3 -5 -11 -10 -16 -10 -6 0 -7 5
-4 10 3 6 11 10 16 10 6 0 7 -4 4 -10z m2845 -20 c0 -5 -5 -10 -11 -10 -5 0
-7 5 -4 10 3 6 8 10 11 10 2 0 4 -4 4 -10z m-4412 -340 c17 -27 10 -25 -19 6
-13 14 -17 23 -9 19 9 -3 21 -14 28 -25z m3528 -101 c3 -6 -5 -3 -20 6 -14 10
-26 19 -26 22 0 7 39 -17 46 -28z m50 -36 c-6 -6 -36 9 -36 18 0 5 9 4 20 -3
10 -7 18 -14 16 -15z m634 -367 c0 -3 -4 -8 -10 -11 -5 -3 -10 -1 -10 4 0 6 5
11 10 11 6 0 10 -2 10 -4z m-4218 -45 c4 -3 -27 -5 -70 -4 l-77 2 60 -8 c47
-7 202 -17 300 -21 6 0 -1 -9 -15 -20 -14 -11 -20 -20 -14 -20 6 0 21 11 33
24 l23 24 -54 6 c-29 4 -80 8 -113 9 -33 2 -8 3 55 3 l115 -1 -3 -49 c-3 -58
-20 -98 -44 -102 -10 -1 -18 1 -18 5 0 4 -12 6 -27 4 -16 -1 -56 -4 -90 -6
-59 -3 -61 -2 -51 18 10 18 9 19 -5 7 -14 -12 -21 -11 -46 1 -19 10 -57 14
-110 13 -51 0 -87 4 -98 12 -9 6 -22 12 -27 12 -6 0 -3 -5 7 -11 26 -15 21
-30 -6 -20 -16 6 -31 5 -44 -2 -66 -38 -69 -39 -41 -15 14 13 43 34 63 48 53
36 104 83 82 76 -11 -3 -16 -2 -12 4 3 6 18 7 33 3 23 -5 25 -4 15 8 -10 12 2
13 80 11 51 -2 95 -7 99 -11z m-242 -36 c0 -2 -10 -10 -22 -16 -21 -11 -22
-11 -9 4 13 16 31 23 31 12z m-71 -28 c-2 -1 -15 -11 -29 -22 l-25 -20 19 23
c11 12 24 22 29 22 6 0 8 -1 6 -3z m-74 -67 c-3 -5 -11 -10 -16 -10 -6 0 -7 5
-4 10 3 6 11 10 16 10 6 0 7 -4 4 -10z m115 -20 c0 -5 -7 -10 -16 -10 -8 0
-12 5 -9 10 3 6 10 10 16 10 5 0 9 -4 9 -10z m254 -20 c-7 -7 -19 -7 -35 -1
-23 9 -22 10 11 10 23 1 31 -2 24 -9z m-109 -17 c-2 -10 -4 -20 -4 -22 -1 -3
-6 0 -12 6 -6 6 -18 9 -25 6 -8 -3 -14 0 -14 5 0 6 12 13 28 15 15 2 28 5 29
6 1 0 0 -7 -2 -16z m295 13 c0 -2 -7 -7 -16 -10 -8 -3 -12 -2 -9 4 6 10 25 14
25 6z m41 -18 c-4 -12 -14 -24 -21 -26 -8 -3 -10 0 -5 8 5 9 1 10 -16 6 -20
-6 -21 -5 -6 4 9 6 22 8 27 5 6 -3 10 1 10 9 0 9 4 16 10 16 5 0 6 -9 1 -22z
m-691 8 c0 -3 -15 -14 -32 -26 l-33 -22 30 26 c31 27 35 29 35 22z m280 -4 c0
-8 -129 -56 -135 -50 -2 2 26 16 63 31 78 31 72 29 72 19z m396 -107 c-4 -35
-10 -75 -15 -87 l-8 -22 -5 22 c-4 12 -3 22 1 22 9 0 7 40 -4 63 -4 10 -14 16
-21 13 -14 -5 -29 28 -19 44 3 5 22 10 42 10 l36 0 -7 -65z m-156 -6 c-7 -11
-14 -18 -17 -15 -3 3 0 12 7 21 18 21 23 19 10 -6z m4410 0 c0 -5 -7 -9 -15
-9 -9 0 -12 6 -9 15 6 15 24 11 24 -6z m-5085 -9 c-3 -5 -11 -10 -16 -10 -6 0
-7 5 -4 10 3 6 11 10 16 10 6 0 7 -4 4 -10z m795 -25 c0 -14 -4 -25 -10 -25
-5 0 -10 11 -10 25 0 14 5 25 10 25 6 0 10 -11 10 -25z m-184 -23 c-17 -16
-18 -16 -5 5 7 12 15 20 18 17 3 -2 -3 -12 -13 -22z m312 -205 c7 -14 21 -29
32 -32 11 -4 20 -11 20 -16 0 -6 3 -8 8 -6 4 2 20 -12 37 -32 31 -37 11 -27
-35 18 -14 13 -38 30 -55 37 -37 15 -126 68 -103 61 9 -3 22 1 29 9 10 12 15
13 33 1 12 -8 27 -26 34 -40z m-68 -73 c36 -36 56 -61 45 -55 -24 13 -48 34
-94 84 -60 64 -19 40 49 -29z m-350 38 c0 -5 -7 -17 -15 -28 -14 -18 -14 -17
-4 9 12 27 19 34 19 19z m280 -31 c0 -9 -81 -33 -88 -26 -6 6 51 34 71 35 9 0
17 -4 17 -9z m-320 -41 c-6 -11 -13 -20 -16 -20 -2 0 0 9 6 20 6 11 13 20 16
20 2 0 0 -9 -6 -20z m347 -22 c-3 -7 -5 -2 -5 12 0 14 2 19 5 13 2 -7 2 -19 0
-25z m-214 -3 c-3 -9 -8 -14 -10 -11 -3 3 -2 9 2 15 9 16 15 13 8 -4z m494 -1
c-3 -3 -12 -4 -19 -1 -8 3 -5 6 6 6 11 1 17 -2 13 -5z m-217 -21 c-8 -3 -30
-12 -47 -19 -18 -7 -33 -9 -33 -5 0 12 42 30 70 30 15 -1 19 -3 10 -6z m-186
-228 c3 -8 1 -15 -4 -15 -6 0 -10 5 -10 11 0 8 -5 8 -15 -1 -8 -7 -15 -8 -15
-3 0 25 35 31 44 8z m150 -20 c9 -14 23 -25 31 -25 8 0 15 -8 15 -17 0 -15 -2
-16 -10 -3 -8 13 -10 12 -10 -4 0 -15 -3 -16 -15 -6 -8 7 -15 19 -15 26 0 8
-4 14 -9 14 -5 0 -11 9 -14 20 -7 28 7 25 27 -5z m-814 -33 c0 -15 -2 -15 -10
-2 -13 20 -13 33 0 25 6 -3 10 -14 10 -23z m706 -24 c14 -28 15 -31 2 -20 -14
11 -31 52 -22 52 2 0 11 -15 20 -32z m229 2 c3 -5 1 -10 -4 -10 -6 0 -11 5
-11 10 0 6 2 10 4 10 3 0 8 -4 11 -10z m-31 -14 c-4 -10 1 -14 19 -12 15 2 24
-1 21 -8 -4 -9 -84 -17 -84 -8 0 2 5 12 10 23 12 22 42 26 34 5z m-364 -56
c-6 -12 -14 -20 -17 -17 -2 3 1 14 8 26 17 26 24 19 9 -9z m311 -13 c-10 -9
-11 -8 -5 6 3 10 9 15 12 12 3 -3 0 -11 -7 -18z m59 3 c0 -5 -2 -10 -4 -10 -3
0 -8 5 -11 10 -3 6 -1 10 4 10 6 0 11 -4 11 -10z m-133 -50 c-3 -11 5 -29 16
-41 14 -15 17 -24 9 -27 -13 -4 -17 -32 -4 -32 4 0 18 7 31 16 22 16 23 16 12
-5 -7 -11 -18 -21 -26 -21 -7 0 -16 -10 -18 -22 -4 -21 -4 -20 -6 3 -1 29 -23
53 -36 41 -5 -4 -5 2 0 13 17 45 17 55 1 55 -19 0 -21 16 -3 34 16 18 30 9 24
-14z m161 10 c18 -11 30 -25 27 -30 -4 -6 -17 -3 -34 10 -28 19 -42 18 -37 -3
2 -7 1 -9 -1 -4 -3 4 -9 5 -14 1 -12 -7 -11 3 1 27 13 24 17 24 58 -1z m95
-34 c4 -10 1 -13 -9 -9 -15 6 -19 23 -5 23 5 0 11 -7 14 -14z m-743 -21 c0 -8
-4 -15 -10 -15 -5 0 -7 7 -4 15 4 8 8 15 10 15 2 0 4 -7 4 -15z m364 -52 c3
-38 16 -151 28 -252 16 -141 19 -188 10 -202 -6 -10 -15 -37 -18 -61 -7 -43
-22 -79 -109 -263 -26 -55 -103 -221 -172 -370 -160 -347 -167 -358 -172 -258
-4 79 -11 123 -23 142 -8 13 -8 26 0 51 7 18 8 39 4 46 -6 10 -11 4 -21 -21
-7 -19 -16 -35 -21 -35 -14 0 -7 69 8 75 8 3 11 12 7 25 -4 12 -2 26 3 33 5 7
12 67 14 135 3 69 1 118 -3 110 -5 -7 -9 -21 -9 -30 0 -10 -4 -18 -9 -18 -5 0
-4 15 2 35 6 19 16 35 22 35 12 0 168 332 181 385 4 17 13 35 20 40 10 9 134
271 177 376 14 33 54 86 68 88 3 1 9 -29 13 -66z m3246 43 c0 -3 -4 -8 -10
-11 -5 -3 -10 -1 -10 4 0 6 5 11 10 11 6 0 10 -2 10 -4z m-3633 -38 c-3 -8 -6
-5 -6 6 -1 11 2 17 5 13 3 -3 4 -12 1 -19z m1115 -2 c4 3 8 1 8 -5 0 -23 -24
-22 -49 3 l-26 27 29 -15 c16 -8 33 -13 38 -10z m46 -8 c-8 -7 -20 -21 -25
-32 -6 -10 -13 -14 -16 -9 -4 6 4 21 16 34 12 13 21 28 19 34 -2 5 2 4 9 -2
10 -11 10 -15 -3 -25z m2492 14 c0 -5 -11 -15 -25 -22 -14 -7 -25 -17 -25 -22
0 -5 5 -6 12 -2 7 4 8 3 4 -4 -5 -9 -13 -9 -27 -2 -18 10 -18 12 -3 35 15 24
64 36 64 17z m167 -40 c27 -15 66 -16 58 -2 -3 6 1 10 10 10 9 0 14 -4 10 -10
-7 -11 65 -49 83 -43 6 3 12 0 12 -6 0 -6 13 -11 28 -11 18 0 29 -5 29 -14 0
-14 -1 -14 -57 14 -15 8 -20 7 -20 -2 0 -8 -3 -9 -8 -3 -10 15 -35 18 -26 4 5
-9 2 -10 -9 -6 -9 3 -19 2 -22 -4 -4 -5 -12 -6 -18 -2 -7 4 -20 6 -31 4 -10
-1 -15 2 -12 7 4 6 -3 8 -15 5 -38 -10 2 -22 95 -28 49 -3 96 -10 106 -15 13
-7 21 -5 30 5 14 16 40 20 40 6 0 -5 -10 -15 -21 -23 -19 -12 -14 -13 51 -11
43 2 81 10 93 18 12 8 31 15 42 16 11 1 0 6 -24 11 -46 10 -91 4 -91 -13 0 -6
5 -7 11 -3 7 4 26 8 43 10 21 2 26 1 16 -5 -8 -5 -37 -11 -65 -14 -27 -3 -42
-3 -32 0 21 6 22 12 0 28 -13 10 -6 13 47 19 37 4 67 3 72 -2 6 -6 22 -7 37
-3 32 10 193 3 224 -8 l22 -9 -25 -10 c-73 -30 -167 -52 -225 -53 -36 -1 -68
-6 -71 -10 -3 -5 0 -9 5 -9 6 0 68 -41 138 -91 145 -104 291 -232 271 -237
-41 -11 -43 -13 -28 -22 8 -5 18 -6 22 -4 4 3 8 0 8 -5 0 -6 12 -11 26 -11 22
0 125 -63 177 -108 22 -20 29 -13 77 75 32 60 40 68 68 71 23 2 34 -2 38 -13
5 -13 9 -14 15 -4 6 10 11 10 23 0 10 -8 16 -9 16 -3 0 6 -9 14 -20 17 -11 3
-20 13 -20 22 0 10 6 13 16 9 13 -5 14 -3 6 6 -7 10 -5 37 11 97 18 72 22 80
30 60 16 -38 16 -89 1 -89 -8 0 -11 -6 -8 -15 4 -8 10 -13 14 -10 4 3 10 -2
14 -10 3 -8 10 -15 17 -15 6 0 8 7 4 18 -4 11 -3 13 3 7 16 -16 24 -55 13 -55
-6 0 -11 4 -11 8 0 10 -50 35 -57 29 -7 -8 68 -47 78 -42 5 4 9 30 9 58 0 29
4 59 10 67 6 9 5 17 -3 23 -8 5 -5 7 7 5 10 -2 21 3 24 11 3 9 0 11 -9 6 -8
-5 -5 1 5 13 20 24 57 32 38 10 -5 -7 -19 -47 -30 -88 -33 -122 -37 -128 -74
-133 -26 -3 -24 -4 14 -5 35 -2 55 -9 79 -29 18 -15 34 -23 36 -17 6 18 143
-11 143 -30 0 -10 -100 2 -114 13 -9 8 -20 11 -24 7 -4 -4 1 -12 10 -17 10 -5
14 -17 11 -29 -3 -11 -9 -17 -14 -14 -5 3 -7 10 -3 15 6 10 -27 49 -41 49 -12
0 -4 -24 13 -36 15 -12 15 -13 -5 -7 -12 3 -32 21 -43 40 -11 20 -23 33 -26
30 -7 -7 28 -77 38 -77 5 0 6 -5 2 -11 -4 -7 3 -19 16 -29 20 -15 21 -19 9
-38 -15 -25 -59 -30 -59 -8 0 8 -14 17 -30 21 l-30 7 21 17 c27 21 21 52 -16
96 l-26 30 26 -52 c14 -29 25 -54 25 -56 0 -2 -17 -9 -39 -15 -47 -15 -60 -47
-31 -75 11 -10 20 -22 20 -27 0 -14 -17 -12 -23 3 -4 9 -8 8 -16 -3 -7 -10 -6
-19 2 -29 10 -11 9 -13 -3 -9 -9 3 -14 15 -12 32 1 14 -2 26 -8 26 -5 0 -10
-5 -10 -11 0 -6 -7 -9 -15 -5 -20 7 -19 6 10 -34 14 -19 25 -39 25 -44 0 -6
-7 0 -16 12 -8 12 -20 19 -26 16 -7 -4 -8 -2 -4 4 5 8 2 10 -8 6 -9 -3 -13
-10 -10 -15 3 -5 -9 -1 -25 9 -23 13 -29 22 -25 37 4 15 3 16 -4 6 -8 -11 -13
-8 -24 14 -10 19 -17 24 -23 16 -4 -7 2 -22 13 -34 14 -15 18 -27 12 -36 -7
-12 -13 -11 -35 5 -66 46 -65 46 -105 -4 -54 -68 -67 -78 -75 -53 -3 10 -13
22 -22 25 -13 5 -14 1 -9 -25 7 -37 -12 -99 -30 -99 -13 0 -14 7 -16 68 -2 66
-64 25 -97 -64 -19 -51 -20 -130 -2 -176 15 -40 2 -47 -81 -44 -59 1 -82 6
-100 21 -21 18 -21 17 2 -9 22 -26 23 -28 5 -21 -11 4 -29 9 -40 10 -11 2 -21
4 -22 4 -7 2 -18 -5 -16 -10 1 -3 -22 -2 -50 2 -29 3 -54 5 -56 3 -2 -2 1 -4
7 -4 7 0 12 -4 12 -10 0 -6 -9 -6 -26 0 -33 13 -57 13 -49 0 3 -5 -3 -10 -14
-10 -29 0 -26 -17 7 -34 15 -8 22 -15 17 -16 -6 0 -20 7 -32 15 -15 10 -35 13
-64 10 -31 -4 -47 -1 -60 11 -18 16 -19 16 -19 1 0 -10 -4 -17 -10 -17 -5 0
-7 7 -3 16 4 12 0 14 -22 8 -17 -4 -26 -3 -22 3 3 5 -1 23 -9 38 -8 16 -13 37
-11 46 2 9 0 24 -5 33 -6 11 -5 16 4 16 7 0 2 7 -10 16 -12 8 -22 20 -22 27 0
17 -44 121 -52 125 -5 2 -8 12 -8 22 0 10 -5 22 -10 25 -6 4 -17 23 -26 43 -8
20 -19 39 -24 42 -5 3 -34 39 -64 80 -63 86 -73 99 -121 158 -38 48 -41 57
-23 68 7 5 9 2 5 -8 -4 -12 -1 -14 14 -11 21 6 23 11 9 33 -8 13 -13 13 -40
-3 -16 -10 -30 -13 -30 -8 0 14 -37 14 -45 1 -4 -7 -13 -6 -26 1 -11 5 -29 7
-39 4 -19 -6 -24 2 -23 42 0 6 -14 19 -31 27 -17 8 -42 27 -56 42 l-25 27 32
-17 c37 -18 43 -19 43 -7 0 5 -10 11 -22 15 -19 5 -20 8 -8 15 12 8 10 12 -10
20 -16 6 -19 10 -8 10 18 1 28 19 21 38 -3 6 -11 9 -19 6 -26 -10 -14 12 17
30 32 18 78 25 50 8 -7 -5 -10 -14 -6 -21 6 -9 3 -9 -15 0 -19 10 -21 9 -18
-7 2 -11 14 -19 31 -21 18 -2 27 -9 27 -22 0 -10 -5 -20 -12 -22 -8 -3 -7 -6
3 -10 8 -3 26 1 40 9 23 14 23 14 2 10 -27 -6 -29 0 -6 25 16 18 16 18 -3 12
-17 -7 -17 -6 -5 9 7 9 17 17 22 17 12 0 40 -56 31 -64 -3 -4 1 -4 11 0 9 3
14 11 11 16 -4 6 2 7 16 3 14 -4 20 -3 16 3 -3 5 1 13 9 16 21 8 36 49 21 58
-7 5 -5 8 5 8 10 0 19 11 23 30 3 17 9 43 12 59 7 33 37 47 55 25 11 -14 65
-9 84 7 12 12 25 11 25 -2 0 -5 -4 -8 -9 -4 -5 3 -12 1 -15 -4 -4 -5 2 -12 11
-15 26 -7 103 -4 103 4 0 16 -82 52 -108 46 l-27 -6 28 16 c16 8 34 13 41 11
7 -3 19 -2 25 3 17 10 61 6 88 -8z m43 14 c0 -2 -7 -6 -15 -10 -8 -3 -15 -1
-15 4 0 6 7 10 15 10 8 0 15 -2 15 -4z m-3178 -73 c-5 -16 -19 -17 -28 -1 -4
6 -2 14 4 16 18 6 14 22 -5 23 -15 0 -15 2 2 8 16 6 21 4 26 -13 3 -11 4 -27
1 -33z m698 47 c0 -5 -2 -10 -4 -10 -3 0 -8 5 -11 10 -3 6 -1 10 4 10 6 0 11
-4 11 -10z m2673 -11 c20 -5 37 -12 37 -14 0 -11 -136 7 -149 20 -12 12 -7 13
30 9 24 -3 61 -9 82 -15z m630 14 c-7 -2 -21 -2 -30 0 -10 3 -4 5 12 5 17 0
24 -2 18 -5z m-4758 -74 c-13 -24 -25 -40 -25 -36 0 13 41 89 46 84 2 -2 -7
-24 -21 -48z m3405 18 c0 -27 -6 -36 -27 -46 -22 -10 -24 -14 -12 -22 7 -5 9
-9 3 -9 -6 0 -18 8 -25 17 -8 9 -9 14 -2 10 14 -8 28 27 17 44 -5 8 -1 8 15 0
17 -10 20 -9 15 4 -4 8 -10 15 -16 15 -5 0 -6 5 -3 10 14 23 35 9 35 -23z
m1979 -11 c-3 -3 -11 5 -18 17 -13 21 -12 21 5 5 10 -10 16 -20 13 -22z
m-3894 -26 c-3 -5 -11 -10 -16 -10 -6 0 -7 5 -4 10 3 6 11 10 16 10 6 0 7 -4
4 -10z m-53 -43 c16 -12 28 -22 28 -24 0 -4 -35 10 -40 17 -3 4 -18 15 -35 24
-26 14 -26 16 -5 10 13 -4 37 -16 52 -27z m1978 18 c-7 -9 -15 -13 -17 -11 -7
7 7 26 19 26 6 0 6 -6 -2 -15z m-135 -54 c3 -5 2 -12 -3 -15 -5 -3 -9 1 -9 9
0 17 3 19 12 6z m145 -5 c0 -2 -8 -10 -17 -17 -16 -13 -17 -12 -4 4 13 16 21
21 21 13z m1823 -40 c-5 -69 -70 -106 -66 -37 1 37 29 73 52 69 11 -2 15 -13
14 -32z m162 -6 c3 -5 1 -10 -4 -10 -6 0 -11 5 -11 10 0 6 2 10 4 10 3 0 8 -4
11 -10z m25 -40 c0 -5 -9 -6 -20 -3 -11 3 -20 9 -20 13 0 5 9 6 20 3 11 -3 20
-9 20 -13z m-4215 0 c3 -5 2 -10 -4 -10 -5 0 -13 5 -16 10 -3 6 -2 10 4 10 5
0 13 -4 16 -10z m4125 -45 c14 -19 14 -19 -2 -6 -10 7 -18 18 -18 24 0 6 1 8
3 6 1 -2 9 -13 17 -24z m-5258 -37 c-6 -6 -15 -8 -19 -4 -4 4 -1 11 7 16 19
12 27 3 12 -12z m5138 8 c0 -11 -19 -15 -25 -6 -3 5 1 10 9 10 9 0 16 -2 16
-4z m100 -40 c0 -3 -4 -8 -10 -11 -5 -3 -10 -1 -10 4 0 6 5 11 10 11 6 0 10
-2 10 -4z m30 -66 c0 -5 -5 -10 -11 -10 -5 0 -7 5 -4 10 3 6 8 10 11 10 2 0 4
-4 4 -10z m24 -13 c-3 -8 -12 -18 -20 -21 -11 -4 -11 0 2 20 18 26 28 27 18 1z
m-4578 -14 c-10 -10 -19 5 -10 18 6 11 8 11 12 0 2 -7 1 -15 -2 -18z m-123 4
c4 3 7 2 8 -3 0 -5 2 -28 5 -51 5 -34 3 -43 -9 -43 -9 0 -17 -3 -20 -7 -2 -5
-3 -3 -1 3 1 6 -4 11 -13 10 -29 -2 -38 29 -18 60 11 16 18 33 17 38 -2 5 3 4
11 -2 8 -7 17 -9 20 -5z m802 3 c3 -5 2 -10 -4 -10 -5 0 -13 5 -16 10 -3 6 -2
10 4 10 5 0 13 -4 16 -10z m-655 -72 c0 -6 -7 -5 -15 2 -8 7 -15 17 -15 22 0
6 7 5 15 -2 8 -7 15 -17 15 -22z m54 9 c13 -20 5 -30 -18 -21 -9 3 -16 15 -16
26 0 22 18 20 34 -5z m2544 3 c-7 -10 -14 -18 -15 -16 -6 6 9 36 18 36 5 0 4
-9 -3 -20z m-243 0 c4 -6 1 -17 -5 -25 -7 -8 -9 -15 -5 -15 4 0 2 -7 -5 -15
-7 -8 -21 -15 -31 -15 -11 0 -19 7 -19 15 0 8 -4 15 -9 15 -15 0 -7 34 9 42
23 10 58 9 65 -2z m100 0 c3 -5 1 -10 -4 -10 -6 0 -11 5 -11 10 0 6 2 10 4 10
3 0 8 -4 11 -10z m-2335 -50 c8 -5 11 -10 5 -10 -5 0 -17 5 -25 10 -8 5 -10
10 -5 10 6 0 17 -5 25 -10z m-306 -21 c-3 -6 -1 -15 6 -19 7 -4 10 -14 8 -21
-3 -10 -8 -7 -17 9 -11 20 -8 42 5 42 3 0 2 -5 -2 -11z m369 -23 c9 -7 17 -16
17 -20 0 -12 -18 -6 -41 14 -28 22 -6 28 24 6z m4312 -6 c3 -6 -1 -7 -9 -4
-18 7 -21 14 -7 14 6 0 13 -4 16 -10z m-1925 -11 c0 -5 5 -7 10 -4 6 3 10 1
10 -5 0 -7 -8 -9 -20 -5 -11 4 -20 2 -20 -4 0 -6 -7 -11 -17 -11 -14 0 -14 2
2 20 20 22 35 26 35 9z m-1825 -47 c-8 -8 -35 19 -35 36 0 11 5 9 20 -8 11
-13 18 -25 15 -28z m1645 -3 c0 -6 -7 -6 -19 1 -37 19 -45 10 -16 -20 42 -44
24 -47 -32 -5 -63 49 -63 48 -28 41 17 -3 37 -2 44 3 16 11 51 -3 51 -20z
m2004 -11 c-3 -4 -12 -8 -21 -8 -13 0 -13 -3 -3 -15 10 -12 9 -15 -5 -15 -9 0
-19 9 -22 20 -3 11 -9 17 -14 14 -9 -5 -13 19 -4 28 8 8 74 -15 69 -24z
m-2066 -40 c58 -45 66 -62 25 -52 l-28 7 33 -27 c17 -15 32 -31 32 -35 0 -16
-65 -38 -85 -29 -19 8 -19 8 2 4 12 -2 24 2 27 10 3 7 12 11 21 8 8 -3 15 -1
15 5 0 6 -11 11 -25 11 -14 0 -25 -4 -25 -10 0 -17 -13 -11 -55 26 l-40 34 38
-15 c20 -8 37 -11 37 -6 0 5 -9 13 -21 16 -11 4 -18 9 -15 12 2 3 -4 14 -14
26 -11 11 -17 24 -14 29 3 4 21 -8 40 -28 19 -21 37 -34 40 -31 8 7 -10 39
-22 39 -5 -1 -8 6 -6 14 2 8 -1 14 -5 13 -16 -2 -53 14 -53 23 0 17 43 -3 98
-44z m-1479 -16 l20 -29 -38 -79 c-26 -54 -47 -83 -64 -91 -20 -9 -26 -9 -31
2 -2 7 2 16 10 19 8 3 14 12 14 20 0 7 8 13 18 12 11 -1 16 6 16 17 -1 10 1
16 4 13 3 -4 16 15 29 40 l24 47 -23 26 c-13 14 -32 34 -43 44 -19 18 -19 18
12 3 17 -9 41 -28 52 -44z m1905 49 c4 -5 -3 -7 -14 -4 -23 6 -26 13 -6 13 8
0 17 -4 20 -9z m-254 -10 c0 -15 -16 -22 -35 -15 -13 5 -14 8 -3 15 18 12 38
11 38 0z m-2166 -72 c-7 -13 -24 -1 -24 17 0 8 -4 14 -9 14 -5 0 -11 10 -14
23 -5 18 -1 16 23 -12 16 -18 27 -37 24 -42z m2446 57 c0 -3 -4 -8 -10 -11 -5
-3 -10 -1 -10 4 0 6 5 11 10 11 6 0 10 -2 10 -4z m-130 -16 c0 -5 -5 -10 -11
-10 -5 0 -7 5 -4 10 3 6 8 10 11 10 2 0 4 -4 4 -10z m-230 -10 c0 -5 -4 -10
-10 -10 -5 0 -10 5 -10 10 0 6 5 10 10 10 6 0 10 -4 10 -10z m1996 1 c12 10
13 9 8 -5 -8 -20 -34 -21 -60 -1 -18 14 -17 14 10 5 20 -8 32 -7 42 1z m-58
-24 c8 -9 8 -17 0 -27 -8 -12 -9 -12 -4 3 4 12 0 17 -14 17 -11 0 -20 5 -20
10 0 14 26 12 38 -3z m-323 -29 c-2 -37 -14 -53 -40 -54 -14 -1 -25 -1 -25 1
0 3 62 75 65 75 0 0 0 -10 0 -22z m182 -15 c2 -5 -3 -10 -11 -10 -8 0 -13 4
-10 9 3 4 -2 11 -10 14 -9 3 -16 11 -16 16 0 12 42 -14 47 -29z m-3853 10 c23
-65 25 -77 12 -62 -17 18 -38 79 -27 79 5 0 11 -8 15 -17z m316 -34 c0 -6 -4
-7 -10 -4 -5 3 -10 11 -10 16 0 6 5 7 10 4 6 -3 10 -11 10 -16z m1580 1 c0 -5
-2 -10 -4 -10 -3 0 -8 5 -11 10 -3 6 -1 10 4 10 6 0 11 -4 11 -10z m-1797 -63
c-4 -6 -16 2 -29 18 -30 38 -19 55 12 20 13 -15 21 -32 17 -38z m3530 22 c-8
-8 -13 -7 -18 2 -5 8 -4 10 3 5 7 -4 12 -2 12 5 0 7 3 9 7 6 4 -4 2 -12 -4
-18z m230 -17 c7 -9 6 -11 -7 -6 -11 4 -16 2 -14 -7 2 -8 -3 -13 -9 -11 -7 1
-13 -3 -13 -9 0 -5 -5 -7 -11 -4 -7 5 -3 15 10 29 12 12 21 29 22 37 0 11 2
11 6 -1 3 -8 10 -21 16 -28z m-4324 1 c-18 -20 -20 -25 -6 -20 22 8 22 8 -7
-56 -21 -49 -27 -55 -67 -65 -41 -10 -43 -9 -21 5 12 8 22 20 22 25 0 6 -7 5
-15 -2 -9 -8 -15 -9 -15 -2 0 14 16 24 53 31 42 9 47 31 7 31 -20 0 -29 -4
-24 -11 4 -8 -4 -9 -27 -5 -27 5 -30 4 -14 -4 17 -9 14 -10 -12 -6 -21 4 -38
0 -48 -10 -9 -10 -24 -14 -38 -10 -13 3 -35 -1 -51 -9 -16 -8 -36 -15 -45 -15
-9 0 -22 -5 -29 -12 -8 -8 -12 -8 -12 -1 0 16 28 36 40 28 5 -3 17 0 25 9 15
15 102 44 162 53 18 3 30 9 28 13 -3 4 11 11 29 14 19 4 45 15 58 26 33 27 36
25 7 -7z m393 -3 c15 -18 17 -19 20 -3 3 15 7 13 23 -10 14 -23 16 -30 6 -37
-23 -14 -100 -20 -126 -10 -24 9 -37 -3 -15 -13 6 -3 5 -4 -2 -3 -7 1 -15 11
-16 21 -3 15 1 17 22 11 28 -7 32 0 16 24 -7 11 -10 12 -10 2 0 -8 -6 -12 -12
-9 -7 2 -12 9 -11 15 1 5 -14 10 -35 9 -20 0 -57 5 -82 11 l-45 11 48 -2 c26
-1 47 2 47 7 0 5 34 6 77 3 62 -5 81 -10 95 -27z m-679 5 c-3 -9 -8 -14 -10
-11 -3 3 -2 9 2 15 9 16 15 13 8 -4z m2817 1 c-4 -4 -16 -4 -26 2 -16 9 -14
10 8 9 15 -1 23 -6 18 -11z m554 -6 c25 -12 46 -23 46 -26 0 -5 -60 19 -87 35
-30 17 -8 12 41 -9z m1344 -9 c7 -9 15 -14 18 -13 3 2 7 2 9 0 2 -2 -9 -5 -25
-6 -17 -1 -30 3 -30 9 0 7 -8 18 -17 26 -16 13 -16 13 7 8 14 -4 31 -14 38
-24z m190 7 c8 -10 -5 -14 -59 -16 -78 -3 -96 15 -21 21 26 2 52 4 58 5 6 1
16 -4 22 -10z m93 3 c-8 -5 -20 -7 -28 -4 -21 8 -15 13 15 13 20 0 23 -3 13
-9z m-5610 -61 c3 -30 3 -58 0 -62 -9 -10 -35 13 -56 50 -11 17 -28 35 -38 38
-24 7 -17 14 25 24 57 14 62 10 69 -50z m1410 20 c9 0 19 -7 23 -15 7 -18 -4
-19 -41 -3 -15 7 -29 12 -29 13 -1 0 -5 11 -9 24 l-7 24 23 -22 c12 -11 30
-21 40 -21z m3704 30 c-3 -5 -1 -19 5 -30 6 -12 7 -20 1 -20 -5 0 -11 5 -13
11 -3 9 -10 9 -27 0 -19 -11 -20 -15 -9 -28 10 -13 8 -13 -14 1 -25 17 -42 36
-18 21 13 -8 60 24 60 41 0 8 5 14 11 14 5 0 7 -4 4 -10z m568 -6 c44 -23 67
-44 67 -64 0 -27 -20 -40 -46 -30 -16 6 -32 5 -50 -4 -23 -13 -24 -15 -7 -20
23 -7 27 -36 6 -36 -16 0 -43 24 -43 38 0 6 -7 13 -16 16 -14 5 -15 4 -4 -9
15 -18 14 -18 -27 -6 -28 8 -32 7 -35 -12 -3 -19 -6 -17 -25 16 -27 46 -30 61
-4 28 l18 -23 17 36 c19 41 37 45 84 16 42 -26 46 -25 27 4 l-16 24 43 -4 43
-3 -29 16 c-27 14 -32 14 -58 -2 -37 -21 -46 -14 -17 14 27 25 31 25 72 5z
m-4613 -4 c0 -5 -2 -10 -4 -10 -3 0 -8 5 -11 10 -3 6 -1 10 4 10 6 0 11 -4 11
-10z m450 6 c0 -3 -4 -8 -10 -11 -5 -3 -10 -1 -10 4 0 6 5 11 10 11 6 0 10 -2
10 -4z m2465 -26 c3 -6 -1 -7 -9 -4 -18 7 -21 14 -7 14 6 0 13 -4 16 -10z
m-3895 -4 c0 -2 -7 -7 -16 -10 -8 -3 -12 -2 -9 4 6 10 25 14 25 6z m3755 -14
c-3 -3 -11 0 -18 7 -9 10 -8 11 6 5 10 -3 15 -9 12 -12z m-2305 -2 c0 -5 -10
-10 -22 -10 -19 0 -20 2 -8 10 19 13 30 13 30 0z m56 -25 c0 -14 -4 -25 -8
-25 -10 0 -10 13 -2 34 9 23 12 20 10 -9z m1524 4 c0 -6 -4 -7 -10 -4 -5 3
-10 11 -10 16 0 6 5 7 10 4 6 -3 10 -11 10 -16z m-1550 1 c0 -5 -4 -10 -10
-10 -5 0 -10 5 -10 10 0 6 5 10 10 10 6 0 10 -4 10 -10z m3540 0 c0 -5 -2 -10
-4 -10 -3 0 -8 5 -11 10 -3 6 -1 10 4 10 6 0 11 -4 11 -10z m714 -22 c39 -32
76 -97 75 -133 0 -18 -1 -17 -10 4 -5 14 -15 21 -23 18 -9 -4 -22 10 -37 41
-13 26 -35 59 -48 75 -35 38 -6 36 43 -5z m-4104 -18 c0 -5 7 -7 16 -3 10 4
17 -1 21 -16 3 -11 12 -21 19 -21 8 0 14 -6 15 -12 0 -7 2 -25 3 -40 l2 -27
-22 20 c-12 11 -25 36 -29 55 -3 19 -10 32 -14 29 -5 -3 -24 9 -42 27 l-34 31
33 -17 c17 -9 32 -21 32 -26z m1060 30 c0 -5 -2 -10 -4 -10 -3 0 -8 5 -11 10
-3 6 -1 10 4 10 6 0 11 -4 11 -10z m-2695 -10 c13 -6 15 -9 5 -9 -8 0 -22 4
-30 9 -18 12 -2 12 25 0z m3624 -4 c7 -8 8 -17 3 -20 -6 -3 -12 3 -15 14 -6
24 -4 25 12 6z m56 -6 c27 -30 12 -34 -15 -5 -13 14 -19 25 -13 25 5 0 18 -9
28 -20z m-3815 -33 c0 -6 -9 -2 -20 8 -11 10 -20 23 -20 28 0 6 9 2 20 -8 11
-10 20 -23 20 -28z m3671 26 c13 -17 13 -17 -6 -3 -11 8 -22 16 -24 17 -2 2 0
3 6 3 6 0 17 -8 24 -17z m-2845 -5 c5 -7 2 -9 -9 -5 -9 3 -17 1 -19 -5 -3 -7
-10 -8 -18 -3 -11 7 -10 10 6 16 27 11 32 10 40 -3z m897 -45 c4 -7 14 -13 21
-13 14 0 30 -29 21 -38 -3 -3 -5 0 -5 6 0 7 -6 12 -12 12 -7 0 -26 14 -42 30
-16 17 -33 30 -38 30 -4 0 -8 5 -8 10 0 12 51 -18 63 -37z m2262 27 c3 -5 1
-10 -4 -10 -6 0 -11 5 -11 10 0 6 2 10 4 10 3 0 8 -4 11 -10z m942 -6 c-3 -3
-12 -4 -19 -1 -8 3 -5 6 6 6 11 1 17 -2 13 -5z m-2327 -14 c0 -5 -4 -10 -10
-10 -5 0 -10 5 -10 10 0 6 5 10 10 10 6 0 10 -4 10 -10z m1245 0 c3 -5 2 -10
-4 -10 -5 0 -13 5 -16 10 -3 6 -2 10 4 10 5 0 13 -4 16 -10z m-3955 -26 c22
-15 40 -32 40 -38 0 -6 -4 -4 -10 4 -10 16 -11 15 -28 -20 -10 -21 -12 -21
-10 -5 2 31 -12 54 -30 50 -9 -2 -30 -6 -47 -10 l-30 -6 28 25 c35 32 38 32
87 0z m940 6 c0 -5 -5 -10 -11 -10 -5 0 -7 5 -4 10 3 6 8 10 11 10 2 0 4 -4 4
-10z m53 -5 c-3 -9 -8 -14 -10 -11 -3 3 -2 9 2 15 9 16 15 13 8 -4z m687 4 c0
-5 9 -9 19 -7 12 2 38 -17 75 -57 31 -33 56 -54 56 -46 0 10 8 7 25 -9 14 -13
25 -18 25 -11 0 6 21 -11 46 -38 26 -28 49 -49 53 -48 3 1 18 -10 33 -23 14
-14 33 -31 42 -38 8 -7 13 -19 9 -28 -6 -16 -33 -16 -78 0 l-20 8 20 -17 20
-17 -20 6 c-38 11 -95 15 -95 7 0 -5 -10 -9 -22 -9 -13 -1 -52 -8 -88 -15 -45
-10 -67 -11 -72 -4 -3 6 -19 16 -35 22 -25 11 -22 11 32 9 33 -2 52 -1 43 2
-10 3 -18 9 -18 14 0 4 -10 11 -22 15 -20 6 -21 8 -5 12 10 3 25 -1 34 -9 12
-9 15 -9 9 0 -5 8 0 12 16 13 13 0 19 2 13 4 -5 1 -29 8 -52 15 -24 8 -50 24
-59 38 -16 24 -16 24 15 18 17 -3 45 -9 61 -12 46 -9 36 4 -12 16 -61 16 -90
32 -83 47 2 8 -2 30 -10 50 -18 43 -18 40 -1 46 11 4 13 1 9 -10 -5 -13 -2
-15 11 -10 10 4 19 7 22 7 2 0 0 8 -3 17 -5 13 -3 15 13 9 15 -6 15 -3 -5 18
-14 15 -19 26 -13 26 7 0 12 -5 12 -11z m-30 -15 c0 -8 -2 -14 -4 -14 -2 0
-11 -3 -20 -6 -9 -3 -16 -1 -16 6 0 6 5 8 10 5 6 -3 10 -1 10 5 0 7 -8 9 -20
5 -32 -10 -130 -13 -135 -5 -8 13 23 18 103 18 54 -1 72 -4 72 -14z m3330 6
c0 -5 -2 -10 -4 -10 -3 0 -8 5 -11 10 -3 6 -1 10 4 10 6 0 11 -4 11 -10z
m-2336 -32 c6 -5 1 -8 -11 -8 -25 0 -26 1 -16 26 5 14 8 15 11 3 3 -7 10 -17
16 -21z m1196 22 c12 -8 11 -10 -7 -10 -13 0 -23 -5 -23 -12 0 -6 -3 -9 -6 -5
-8 8 3 37 13 37 4 0 15 -5 23 -10z m1830 6 c0 -3 -4 -8 -10 -11 -5 -3 -10 -1
-10 4 0 6 5 11 10 11 6 0 10 -2 10 -4z m-5545 -17 c11 -17 2 -18 -19 -3 -17
12 -17 14 -4 14 9 0 20 -5 23 -11z m2412 -4 l28 17 -25 -21 c-32 -26 -37 -26
-50 2 -10 20 -10 21 4 4 14 -18 16 -18 43 -2z m-1607 -5 c-8 -5 -19 -10 -25
-10 -5 0 -3 5 5 10 8 5 20 10 25 10 6 0 3 -5 -5 -10z m1850 -6 c0 -2 -9 -4
-20 -4 -11 0 -20 4 -20 9 0 5 9 7 20 4 11 -3 20 -7 20 -9z m610 6 c0 -5 -5
-10 -11 -10 -5 0 -7 5 -4 10 3 6 8 10 11 10 2 0 4 -4 4 -10z m2254 1 c3 -5 -3
-11 -14 -14 -20 -5 -26 3 -13 16 9 10 21 9 27 -2z m-1518 -50 c26 -36 1 -23
-30 16 -25 31 -26 34 -7 21 13 -9 29 -26 37 -37z m-3946 19 c0 -5 -7 -7 -15
-4 -8 4 -12 10 -9 15 6 11 24 2 24 -11z m1325 10 c3 -5 2 -10 -4 -10 -5 0 -13
5 -16 10 -3 6 -2 10 4 10 5 0 13 -4 16 -10z m2376 -16 c-17 -7 -31 -17 -31
-22 0 -5 -11 -14 -24 -20 -19 -9 -27 -6 -50 14 -38 36 -32 49 9 18 19 -14 35
-21 35 -15 0 6 7 11 15 11 8 0 15 6 15 14 0 16 27 25 49 18 8 -3 1 -10 -18
-18z m200 -10 c16 -14 17 -20 7 -31 -20 -20 -57 -6 -50 19 4 17 1 20 -15 16
-11 -3 -20 0 -20 6 0 18 55 11 78 -10z m-2151 12 c0 -3 -4 -8 -10 -11 -5 -3
-10 -1 -10 4 0 6 5 11 10 11 6 0 10 -2 10 -4z m1326 -12 c18 -14 18 -14 -6 -3
-31 14 -36 19 -24 19 6 0 19 -7 30 -16z m-1669 0 c-3 -3 -12 -4 -19 -1 -8 3
-5 6 6 6 11 1 17 -2 13 -5z m930 -16 c-3 -8 -6 -5 -6 6 -1 11 2 17 5 13 3 -3
4 -12 1 -19z m1468 12 c-3 -5 -11 -10 -16 -10 -6 0 -7 5 -4 10 3 6 11 10 16
10 6 0 7 -4 4 -10z m1430 0 c-3 -5 -14 -10 -23 -10 -15 0 -15 2 -2 10 20 13
33 13 25 0z m-5327 -6 c12 -4 22 -13 22 -20 0 -23 -43 -35 -54 -15 -5 9 -10
17 -11 19 -1 1 -21 -2 -44 -7 -31 -7 -41 -6 -38 2 6 19 83 32 125 21z m1904
-24 c17 -16 34 -30 39 -30 4 0 12 -13 18 -30 9 -27 8 -30 -10 -30 -16 0 -19 5
-14 20 4 11 2 20 -4 20 -6 0 -11 -4 -11 -10 0 -5 -5 -10 -11 -10 -6 0 -9 6 -6
14 5 14 -24 62 -48 78 -6 5 -6 8 3 8 7 0 26 -13 44 -30z m4058 -87 c-29 -67
-46 -46 -29 38 7 35 14 58 17 51 6 -20 22 -14 24 11 1 12 3 5 5 -15 3 -24 -4
-55 -17 -85z m-4430 103 c0 -2 -8 -10 -17 -17 -16 -13 -17 -12 -4 4 13 16 21
21 21 13z m1560 -11 c11 -13 10 -14 -4 -9 -9 3 -16 10 -16 15 0 13 6 11 20 -6z
m50 5 c8 -5 11 -10 5 -10 -5 0 -17 5 -25 10 -8 5 -10 10 -5 10 6 0 17 -5 25
-10z m2281 -7 c13 -15 12 -15 -8 -4 -24 12 -29 21 -14 21 5 0 15 -7 22 -17z
m-1493 -12 c3 -10 0 -12 -12 -8 -9 4 -16 2 -16 -3 0 -6 -7 -10 -15 -10 -8 0
-15 -4 -15 -10 0 -5 -4 -10 -10 -10 -19 0 -10 32 10 37 11 3 20 10 20 15 0 14
33 5 38 -11z m352 4 c11 -13 10 -14 -4 -9 -9 3 -16 10 -16 15 0 13 6 11 20 -6z
m-508 -16 c-30 -11 -28 -18 5 -14 15 1 29 8 31 14 5 14 22 4 22 -12 0 -7 -16
-12 -43 -12 -23 0 -48 -4 -55 -9 -19 -13 -35 14 -19 32 7 9 13 10 15 3 2 -7
10 -6 24 4 12 8 26 11 31 8 6 -3 1 -10 -11 -14z m1233 11 c3 -5 1 -10 -4 -10
-6 0 -11 5 -11 10 0 6 2 10 4 10 3 0 8 -4 11 -10z m148 3 c-7 -2 -19 -2 -25 0
-7 3 -2 5 12 5 14 0 19 -2 13 -5z m-1923 -25 c0 -5 -9 -4 -20 2 -11 6 -20 12
-20 14 0 2 9 2 20 -1 11 -3 20 -9 20 -15z m1530 16 c0 -7 -25 -28 -50 -43 -12
-7 -16 -5 -17 10 -1 10 3 22 9 25 8 5 9 1 4 -12 -6 -17 -4 -16 16 4 22 22 38
28 38 16z m80 -3 c0 -5 -7 -12 -16 -15 -14 -5 -15 -4 -4 9 14 17 20 19 20 6z
m-2030 -5 c0 -2 -7 -6 -15 -10 -8 -3 -15 -1 -15 4 0 6 7 10 15 10 8 0 15 -2
15 -4z m155 -6 c3 -5 1 -10 -4 -10 -6 0 -11 5 -11 10 0 6 2 10 4 10 3 0 8 -4
11 -10z m-2722 -31 c5 -18 1 -33 -11 -47 -9 -11 -23 -29 -29 -39 -10 -15 -11
-13 -2 11 5 16 13 34 17 40 7 11 8 17 10 50 2 24 7 19 15 -15z m1292 21 c3 -5
1 -10 -4 -10 -6 0 -11 5 -11 10 0 6 2 10 4 10 3 0 8 -4 11 -10z m1720 -16 c-8
-9 -20 -12 -26 -9 -6 5 -4 12 8 20 23 17 38 8 18 -11z m40 16 c3 -5 1 -10 -4
-10 -6 0 -11 5 -11 10 0 6 2 10 4 10 3 0 8 -4 11 -10z m315 0 c0 -5 -2 -10 -4
-10 -3 0 -8 5 -11 10 -3 6 -1 10 4 10 6 0 11 -4 11 -10z m-2165 -64 c6 -4 1
-4 -10 2 -11 6 -31 23 -45 39 l-25 28 35 -30 c19 -16 40 -34 45 -39z m1585 41
c13 -5 13 -6 -1 -6 -8 -1 -24 6 -35 15 -19 15 -19 15 1 6 11 -5 27 -12 35 -15z
m180 -7 l35 -29 -37 -1 c-21 0 -38 5 -38 11 0 6 7 9 15 5 12 -4 13 -2 5 13 -5
11 -15 22 -22 24 -7 3 -8 6 -3 6 6 0 26 -13 45 -29z m480 9 c0 -4 -7 -6 -15
-3 -8 4 -15 10 -15 15 0 4 7 6 15 3 8 -4 15 -10 15 -15z m2178 7 c-10 -7 -15
-16 -11 -19 3 -4 2 -7 -4 -7 -19 0 -22 13 -5 26 9 7 22 13 27 13 6 0 2 -6 -7
-13z m-5803 -6 c3 -5 15 -10 26 -10 10 0 19 -7 19 -15 0 -15 -23 -11 -46 7 -7
5 -27 2 -49 -8 -46 -19 -55 -13 -19 15 29 22 59 27 69 11z m4605 6 c0 -3 -4
-8 -10 -11 -5 -3 -10 -1 -10 4 0 6 5 11 10 11 6 0 10 -2 10 -4z m310 0 c0 -2
-7 -7 -16 -10 -8 -3 -12 -2 -9 4 6 10 25 14 25 6z m840 -2 c0 -16 -23 -44 -36
-44 -10 0 -12 4 -7 13 4 6 8 15 9 20 1 4 2 9 3 12 1 7 31 6 31 -1z m-143 -26
c-3 -8 -6 -5 -6 6 -1 11 2 17 5 13 3 -3 4 -12 1 -19z m233 12 c0 -5 -4 -10
-10 -10 -5 0 -10 5 -10 10 0 6 5 10 10 10 6 0 10 -4 10 -10z m-2970 -10 c0 -5
-4 -10 -10 -10 -5 0 -10 5 -10 10 0 6 5 10 10 10 6 0 10 -4 10 -10z m174 -5
c11 -8 15 -15 10 -15 -6 0 -19 7 -30 15 -10 8 -14 14 -9 14 6 0 19 -6 29 -14z
m-144 -15 c0 -5 8 -10 18 -11 14 0 14 -2 -3 -8 -22 -9 -55 -3 -55 9 0 8 16 18
33 19 4 1 7 -3 7 -9z m65 0 c3 -6 -1 -7 -9 -4 -18 7 -21 14 -7 14 6 0 13 -4
16 -10z m950 0 c3 -5 1 -10 -4 -10 -6 0 -11 5 -11 10 0 6 2 10 4 10 3 0 8 -4
11 -10z m35 0 c0 -5 -5 -10 -11 -10 -5 0 -7 5 -4 10 3 6 8 10 11 10 2 0 4 -4
4 -10z m-132 -7 c-10 -2 -26 -2 -35 0 -10 3 -2 5 17 5 19 0 27 -2 18 -5z
m-1891 -20 c39 -26 77 -62 71 -69 -3 -3 -22 10 -41 28 -19 18 -44 38 -54 45
-10 6 -14 12 -10 12 4 1 20 -7 34 -16z m1763 3 c0 -3 -4 -8 -10 -11 -5 -3 -10
-1 -10 4 0 6 5 11 10 11 6 0 10 -2 10 -4z m-3587 -27 c-21 -21 -93 -35 -93
-17 0 4 11 9 25 9 40 2 43 3 57 17 6 6 17 12 22 12 6 0 1 -10 -11 -21z m2279
-19 c12 0 19 -3 16 -6 -3 -3 -25 -5 -48 -6 -31 0 -40 -4 -36 -15 3 -8 1 -11
-4 -8 -13 8 -8 39 9 59 13 15 15 15 28 -4 8 -11 24 -20 35 -20z m48 -2 c0 -10
-5 -18 -11 -18 -5 0 -8 4 -5 9 3 5 -1 14 -9 21 -22 18 -18 32 5 18 11 -7 20
-21 20 -30z m997 6 c-3 -3 -12 -4 -19 -1 -8 3 -5 6 6 6 11 1 17 -2 13 -5z
m-77 -13 c0 -5 -7 -12 -16 -15 -14 -5 -15 -4 -4 9 14 17 20 19 20 6z m-40 -41
c0 -5 -7 -7 -15 -4 -8 4 -15 8 -15 10 0 2 7 4 15 4 8 0 15 -4 15 -10z m-496
-14 c-3 -8 -14 -16 -24 -19 -12 -3 -17 0 -13 9 2 7 12 15 21 17 10 3 18 5 19
6 1 0 0 -5 -3 -13z m386 4 c0 -10 -41 -21 -52 -14 -5 3 -6 9 -3 13 6 11 55 11
55 1z m-2424 -56 c17 -14 17 -15 1 -10 -10 3 -25 6 -33 6 -9 0 -12 5 -9 10 9
14 18 13 41 -6z m1919 6 c-3 -5 -14 -10 -23 -10 -15 0 -15 2 -2 10 20 13 33
13 25 0z m-248 -6 c-3 -3 -12 -4 -19 -1 -8 3 -5 6 6 6 11 1 17 -2 13 -5z m98
-3 c-3 -5 -19 -9 -35 -9 -38 1 -28 18 11 18 17 0 28 -4 24 -9z m3035 -6 c0 -9
-6 -12 -15 -9 -8 4 -15 10 -15 15 0 5 7 9 15 9 8 0 15 -7 15 -15z m-4872 -12
c-3 -15 -15 -18 -68 -20 l-65 -2 53 13 c29 7 55 16 59 20 12 12 24 6 21 -11z
m1138 -12 c21 -20 52 -22 70 -4 16 16 17 16 12 1 -4 -10 -1 -19 8 -22 21 -8
21 -8 27 14 8 29 25 25 19 -5 -3 -20 -10 -25 -32 -25 -16 0 -37 -3 -47 -6 -15
-5 -15 -4 -3 5 8 6 10 11 5 11 -6 0 -15 -4 -21 -10 -13 -13 -91 -22 -98 -11
-3 5 3 7 13 4 15 -4 20 0 18 15 0 11 -5 18 -9 16 -4 -3 -18 2 -30 10 -22 16
-21 16 18 16 22 0 44 -4 50 -9z m-1393 -28 c-7 -2 -21 -2 -30 0 -10 3 -4 5 12
5 17 0 24 -2 18 -5z m420 -15 c5 -17 9 -19 21 -9 12 10 17 9 25 -8 6 -11 11
-27 11 -37 0 -13 3 -14 15 -4 12 10 16 9 21 -4 16 -42 -23 -25 -98 43 -31 27
-35 41 -14 41 7 0 16 -10 19 -22z m4528 -41 c-19 -31 -71 -76 -71 -62 0 20 45
87 63 94 31 12 32 7 8 -32z m-4691 16 c1 -16 2 -16 15 1 8 11 17 17 20 14 3
-3 -1 -11 -10 -18 -8 -7 -15 -20 -15 -28 0 -21 -16 -4 -25 26 -4 13 -2 22 4
22 6 0 11 -8 11 -17z m255 7 c3 -5 1 -10 -4 -10 -6 0 -11 5 -11 10 0 6 2 10 4
10 3 0 8 -4 11 -10z m985 6 c0 -2 -7 -7 -16 -10 -8 -3 -12 -2 -9 4 6 10 25 14
25 6z m3670 -6 c0 -5 -5 -10 -11 -10 -5 0 -7 5 -4 10 3 6 8 10 11 10 2 0 4 -4
4 -10z m-4540 -32 c0 -5 -9 -3 -20 4 -11 7 -20 16 -20 20 0 5 9 3 20 -4 11 -7
20 -16 20 -20z m620 22 c0 -5 -2 -10 -4 -10 -3 0 -8 5 -11 10 -3 6 -1 10 4 10
6 0 11 -4 11 -10z m-695 -50 c-3 -5 -11 -10 -16 -10 -6 0 -7 5 -4 10 3 6 11
10 16 10 6 0 7 -4 4 -10z m91 -36 c20 8 26 -25 9 -50 -9 -13 -11 -24 -6 -24 5
0 11 -7 15 -15 4 -12 2 -13 -17 -2 -39 21 -65 43 -93 76 -32 38 -12 37 28 -1
15 -16 30 -28 33 -28 2 0 3 21 1 48 -3 42 -2 44 7 19 6 -15 17 -25 23 -23z
m-522 21 c11 -8 16 -15 10 -15 -5 0 -18 7 -28 15 -11 8 -16 15 -10 15 5 0 18
-7 28 -15z m1331 5 c-3 -5 -13 -10 -21 -10 -8 0 -12 5 -9 10 3 6 13 10 21 10
8 0 12 -4 9 -10z m3561 -29 c-9 -17 -19 -51 -23 -77 -5 -36 -11 -48 -30 -55
-33 -12 -33 -13 -33 20 0 55 49 139 72 125 4 -3 11 2 14 11 4 9 8 14 11 11 2
-2 -3 -18 -11 -35z m-4796 -7 c0 -2 -9 0 -20 6 -11 6 -20 13 -20 16 0 2 9 0
20 -6 11 -6 20 -13 20 -16z m-193 -7 c-22 -7 -32 -6 -43 5 -12 11 -8 13 29 9
41 -4 42 -4 14 -14z m138 -7 c0 -1 7 -3 15 -5 8 -2 24 -7 34 -11 15 -6 17 -4
11 6 -5 8 -4 11 3 6 16 -10 2 -38 -16 -31 -11 4 -12 2 -4 -8 8 -10 6 -13 -10
-14 -28 -3 -58 14 -58 32 0 8 -8 18 -17 24 -15 8 -12 9 12 7 17 -2 30 -5 30
-6z m612 -12 c-3 -8 -6 -5 -6 6 -1 11 2 17 5 13 3 -3 4 -12 1 -19z m-692 2 c4
-6 -9 -10 -32 -9 -38 1 -38 1 -8 9 17 4 31 8 32 9 1 0 5 -3 8 -9z m615 -12 c0
-22 -15 -37 -28 -29 -7 4 -10 15 -6 24 7 20 34 23 34 5z m120 2 c0 -5 -5 -10
-11 -10 -5 0 -7 5 -4 10 3 6 8 10 11 10 2 0 4 -4 4 -10z m-720 -22 c0 -5 9 -8
19 -8 11 0 23 -4 26 -10 3 -5 12 -10 20 -10 8 0 34 -13 58 -30 52 -35 55 -35
79 -13 11 10 18 12 18 4 0 -6 -7 -14 -15 -17 -8 -4 -15 -10 -15 -15 0 -14 26
-10 40 6 15 19 23 14 14 -9 -3 -9 -13 -16 -21 -16 -26 0 6 -30 53 -51 23 -9
45 -22 48 -28 10 -15 -5 -13 -28 4 -23 18 -36 19 -36 5 0 -6 11 -15 25 -20 14
-5 25 -12 25 -15 0 -4 -4 -3 -10 0 -19 12 -10 -13 30 -81 40 -69 56 -113 22
-61 -10 15 -22 24 -26 20 -4 -4 -4 1 -1 12 7 20 6 20 -9 1 -15 -19 -16 -18
-32 19 -9 22 -19 34 -23 27 -4 -6 -17 8 -33 36 -61 109 -210 234 -275 231 -11
0 -6 -6 15 -15 20 -9 30 -19 26 -26 -4 -6 -3 -8 4 -4 15 9 63 -15 55 -27 -4
-6 0 -8 10 -4 9 3 19 2 22 -3 4 -6 1 -10 -5 -10 -6 0 -9 -4 -5 -10 3 -5 13 -6
23 -3 15 6 16 5 2 -13 -14 -18 -14 -18 2 -5 20 15 27 6 32 -45 1 -17 7 -28 15
-26 7 1 11 -5 9 -15 -7 -30 54 -139 71 -129 3 2 6 -9 6 -25 0 -26 -2 -27 -12
-13 -7 9 -10 20 -8 25 3 4 1 9 -3 11 -4 1 -22 23 -39 48 -17 25 -46 61 -63 80
-18 20 -12 9 13 -25 56 -75 84 -130 113 -223 20 -65 21 -81 12 -143 -6 -38
-15 -69 -20 -69 -5 0 -7 4 -4 8 3 5 -2 41 -10 82 -9 40 -13 81 -11 92 3 10 1
18 -4 18 -10 0 -39 65 -42 94 -1 11 -12 31 -24 45 -12 15 -41 50 -64 79 -95
124 -244 180 -363 137 -22 -8 -44 -11 -49 -8 -6 3 -7 1 -3 -5 3 -6 -3 -13 -14
-17 -11 -3 -20 -10 -20 -15 0 -4 -7 -11 -16 -14 -12 -5 -14 -1 -9 17 6 20 5
21 -6 3 -7 -11 -12 -28 -13 -38 -1 -10 -5 -17 -9 -16 -13 4 -34 -39 -57 -117
-29 -93 -28 -92 -29 -74 -2 30 40 153 69 204 40 70 100 137 116 131 18 -7 44
3 44 17 0 7 -4 7 -12 -1 -21 -21 -32 -13 -13 8 16 18 113 53 169 62 39 6 146
3 146 -4z m646 -8 c0 -10 -2 -17 -5 -15 -2 3 -10 0 -18 -6 -10 -9 -13 -7 -13
8 0 11 3 23 7 26 13 14 29 7 29 -13z m-456 -10 c14 -11 20 -20 13 -20 -6 0
-15 5 -18 10 -3 6 -15 10 -26 10 -10 0 -19 5 -19 10 0 16 23 11 50 -10z m530
-3 c22 6 43 -28 22 -35 -7 -2 -12 -12 -12 -23 0 -21 -15 -26 -24 -6 -3 6 -3
-1 1 -18 3 -16 10 -36 16 -43 7 -9 7 -16 -1 -24 -12 -12 -33 -2 -31 15 3 26
-2 37 -16 37 -8 0 -15 -5 -15 -12 0 -9 -3 -9 -12 0 -8 8 -8 15 2 27 13 16 1
21 -15 6 -6 -6 -15 -4 -22 4 -10 11 -8 18 8 37 14 16 22 19 25 11 3 -7 12 -13
20 -13 8 0 11 -6 7 -17 -3 -10 4 -6 16 10 13 15 27 25 32 22 5 -4 9 -1 9 4 0
14 -13 14 -26 1 -6 -6 -10 -2 -11 13 0 12 1 17 3 11 3 -7 14 -10 24 -7z m-403
-33 c-3 -3 -12 -4 -19 -1 -8 3 -5 6 6 6 11 1 17 -2 13 -5z m-33 -20 c3 -8 2
-12 -4 -9 -6 3 -10 10 -10 16 0 14 7 11 14 -7z m76 6 c0 -5 -4 -10 -10 -10 -5
0 -10 5 -10 10 0 6 5 10 10 10 6 0 10 -4 10 -10z m499 -56 c-5 -25 -14 -63
-20 -84 l-12 -38 -42 25 c-42 26 -51 51 -27 75 18 18 14 27 -10 21 -23 -6 -23
-6 -3 14 14 14 21 16 23 7 4 -15 32 -27 32 -13 0 6 5 7 10 4 6 -4 4 -12 -5
-21 -8 -9 -15 -20 -15 -25 0 -6 7 -3 16 5 8 9 19 16 24 16 4 0 13 14 19 30 15
44 20 37 10 -16z m-304 -44 c4 -12 12 -16 24 -13 12 3 31 -7 52 -26 l34 -32
-22 -16 c-13 -8 -23 -24 -23 -34 0 -11 -3 -19 -6 -19 -5 0 -63 41 -88 61 -4 4
11 12 35 17 43 10 42 10 -31 11 -74 2 -75 2 -42 16 20 9 31 19 26 26 -3 6 0
16 7 21 11 7 11 11 2 15 -7 2 -13 9 -13 15 0 15 38 -21 45 -42z m65 40 c0 -5
-2 -10 -4 -10 -3 0 -8 5 -11 10 -3 6 -1 10 4 10 6 0 11 -4 11 -10z m3764 -127
c-63 -115 -85 -148 -69 -108 4 11 20 60 35 109 26 86 47 114 87 116 6 0 -18
-53 -53 -117z m-391 100 c-7 -2 -19 -2 -25 0 -7 3 -2 5 12 5 14 0 19 -2 13 -5z
m916 -29 c36 -39 36 -39 0 -47 -22 -6 -29 -1 -47 32 -27 47 -27 51 -4 51 11 0
33 -16 51 -36z m-4756 -15 c-9 -9 -12 -7 -10 9 1 14 5 18 11 12 7 -7 6 -14 -1
-21z m3807 -19 c-8 -5 -19 -10 -25 -10 -5 0 -3 5 5 10 8 5 20 10 25 10 6 0 3
-5 -5 -10z m-3789 -23 c-10 -9 -11 -8 -5 6 3 10 9 15 12 12 3 -3 0 -11 -7 -18z
m254 13 c4 -6 -6 -7 -27 -3 -44 8 -48 13 -10 13 17 0 34 -4 37 -10z m-45 -30
c56 -39 138 -72 125 -51 -5 8 2 10 22 5 30 -8 74 -34 58 -35 -6 0 6 -7 25 -15
l35 -14 -40 4 c-27 2 -50 -3 -72 -16 -18 -11 -37 -17 -42 -14 -5 4 -12 0 -15
-6 -3 -7 -3 -3 0 10 3 12 1 22 -5 22 -6 0 -11 7 -11 14 0 18 -63 68 -81 64 -7
-2 -13 2 -14 8 0 7 -11 21 -25 33 -21 17 -22 20 -5 14 11 -3 31 -14 45 -23z
m-150 -43 c5 1 7 -4 6 -12 -4 -28 -14 -26 -27 4 -8 17 -17 31 -21 31 -5 0 -8
6 -8 13 1 6 10 1 22 -13 11 -14 24 -24 28 -23z m460 15 c0 -10 5 -23 12 -30
20 -20 -5 -36 -39 -25 -27 9 -35 27 -13 29 6 1 14 2 19 3 5 0 7 10 4 21 -3 11
0 20 6 20 6 0 11 -8 11 -18z m-244 -69 c-7 -7 -26 7 -26 19 0 6 6 6 15 -2 9
-7 13 -15 11 -17z m-103 -50 c-5 -12 -7 -12 -14 -1 -13 20 -11 28 5 22 8 -3
12 -12 9 -21z m3105 -12 c-7 -12 -16 -21 -21 -21 -4 0 0 11 10 24 22 29 30 27
11 -3z m-3971 -58 c-3 -10 -5 -4 -5 12 0 17 2 24 5 18 2 -7 2 -21 0 -30z
m2991 2 c-6 -14 -13 -23 -15 -21 -5 5 15 46 22 46 3 0 -1 -11 -7 -25z m-2036
-7 c-7 -7 -12 -8 -12 -2 0 14 12 26 19 19 2 -3 -1 -11 -7 -17z m3824 -77 c-25
-71 -40 -99 -65 -118 -18 -14 -34 -24 -35 -22 -4 5 126 240 131 236 1 -2 -12
-45 -31 -96z m-3929 57 c-3 -7 -5 -2 -5 12 0 14 2 19 5 13 2 -7 2 -19 0 -25z
m10 -50 c-3 -7 -5 -2 -5 12 0 14 2 19 5 13 2 -7 2 -19 0 -25z m-870 -50 c-2
-13 -4 -3 -4 22 0 25 2 35 4 23 2 -13 2 -33 0 -45z m983 40 c0 -19 -2 -20 -10
-8 -13 19 -13 30 0 30 6 0 10 -10 10 -22z m3060 -2 c0 -3 -4 -8 -10 -11 -5 -3
-10 -1 -10 4 0 6 5 11 10 11 6 0 10 -2 10 -4z m-2716 -15 c3 -5 -1 -12 -10
-15 -20 -8 -29 -1 -19 13 8 13 22 14 29 2z m1601 -21 c-9 -17 -13 -35 -10 -40
3 -5 1 -11 -5 -15 -16 -10 -12 38 6 63 22 32 27 27 9 -8z m-2083 -48 c10 -7
18 -18 18 -24 0 -7 -6 -4 -13 7 -8 10 -19 15 -25 11 -8 -4 -12 0 -12 11 0 10
-3 29 -5 43 -4 20 -3 19 6 -5 7 -16 20 -36 31 -43z m2046 43 c-6 -14 -13 -23
-15 -21 -5 5 15 46 22 46 3 0 -1 -11 -7 -25z m192 20 c0 -2 -10 -9 -22 -15
-22 -11 -22 -10 -4 4 21 17 26 19 26 11z m-2545 -15 c3 -6 -1 -7 -9 -4 -18 7
-21 14 -7 14 6 0 13 -4 16 -10z m354 -102 c1 -41 3 -43 31 -28 15 8 20 6 25
-10 9 -28 -3 -77 -21 -84 -8 -3 -14 -1 -14 4 0 6 -4 10 -9 10 -4 0 -16 -28
-25 -62 -19 -72 -61 -178 -89 -225 -30 -52 -29 -38 3 30 17 34 30 76 30 92 0
21 3 26 9 16 17 -27 44 126 44 254 0 86 2 109 8 80 4 -22 8 -57 8 -77z m2317
97 c-26 -19 -42 -19 -26 0 7 8 20 15 29 15 13 -1 13 -3 -3 -15z m-256 -15 c0
-5 -5 -10 -11 -10 -5 0 -7 5 -4 10 3 6 8 10 11 10 2 0 4 -4 4 -10z m44 -2
c-13 -24 -37 -48 -47 -48 -6 0 2 14 18 30 31 32 41 38 29 18z m-2267 -20 c-3
-8 -6 -5 -6 6 -1 11 2 17 5 13 3 -3 4 -12 1 -19z m-720 -75 c-3 -10 -5 -2 -5
17 0 19 2 27 5 18 2 -10 2 -26 0 -35z m838 25 c6 -4 2 -8 -7 -8 -10 0 -18 7
-18 17 0 9 3 12 8 7 4 -5 12 -12 17 -16z m2065 0 c0 -4 -4 -8 -9 -8 -6 0 -12
4 -15 8 -3 5 1 9 9 9 8 0 15 -4 15 -9z m-2147 -38 c-3 -12 -8 -19 -11 -16 -5
6 5 36 12 36 2 0 2 -9 -1 -20z m75 -46 l-3 -39 -5 47 c-3 26 -1 43 3 39 5 -5
7 -26 5 -47z m-111 14 c-3 -8 -6 -5 -6 6 -1 11 2 17 5 13 3 -3 4 -12 1 -19z
m2164 8 c-6 -7 -10 -20 -8 -27 2 -8 2 -11 0 -6 -8 13 -23 8 -23 -8 0 -18 -16
-20 -26 -3 -4 6 -3 8 3 5 12 -8 26 20 18 34 -4 5 1 6 9 3 9 -3 16 -1 16 5 0 6
5 11 11 11 8 0 8 -4 0 -14z m-2874 -18 c-3 -8 -6 -5 -6 6 -1 11 2 17 5 13 3
-3 4 -12 1 -19z m10 -40 c-3 -8 -6 -5 -6 6 -1 11 2 17 5 13 3 -3 4 -12 1 -19z
m22 -68 c0 -9 -4 -8 -9 5 -5 11 -9 27 -9 35 0 9 4 8 9 -5 5 -11 9 -27 9 -35z
m788 -32 c-2 -13 -4 -5 -4 17 -1 22 1 32 4 23 2 -10 2 -28 0 -40z m-130 20
c-3 -8 -6 -5 -6 6 -1 11 2 17 5 13 3 -3 4 -12 1 -19z m-628 -63 c0 -5 -6 1
-14 15 -8 14 -14 30 -14 35 0 6 6 -1 14 -15 8 -14 14 -29 14 -35z m1662 31
c-7 -8 -9 -21 -5 -28 5 -10 4 -10 -5 -2 -10 9 -10 16 0 32 7 12 15 19 18 17 2
-3 -2 -11 -8 -19z m-1082 -92 c-36 -59 -119 -144 -141 -144 -7 0 1 8 18 19 39
23 95 89 125 146 13 24 25 42 28 40 2 -3 -11 -30 -30 -61z m2161 0 c0 -13 -27
-1 -38 16 -12 20 -12 21 13 4 14 -9 25 -18 25 -20z m-2706 -10 c3 -8 2 -12 -4
-9 -6 3 -10 10 -10 16 0 14 7 11 14 -7z m95 -125 c40 -49 41 -51 9 -20 -20 18
-50 54 -68 80 -33 48 -16 31 59 -60z m56 11 c17 -11 25 -20 19 -20 -6 0 -29
14 -50 31 -47 37 -58 50 -24 26 14 -10 39 -26 55 -37z m2243 25 c-3 -3 -9 2
-12 12 -6 14 -5 15 5 6 7 -7 10 -15 7 -18z m-2018 -55 c-8 -5 -22 -9 -30 -9
-10 0 -8 3 5 9 27 12 43 12 25 0z m-127 -7 c-7 -2 -19 -2 -25 0 -7 3 -2 5 12
5 14 0 19 -2 13 -5z m50 -10 c-7 -2 -19 -2 -25 0 -7 3 -2 5 12 5 14 0 19 -2
13 -5z m957 -7 c0 -3 -4 -8 -10 -11 -5 -3 -10 -1 -10 4 0 6 5 11 10 11 6 0 10
-2 10 -4z m-240 -356 c0 -5 -5 -10 -11 -10 -5 0 -7 5 -4 10 3 6 8 10 11 10 2
0 4 -4 4 -10z m400 -101 c0 -5 -7 -9 -15 -9 -15 0 -20 12 -9 23 8 8 24 -1 24
-14z"/>
<path d="M5285 6979 c-4 -6 -5 -12 -2 -15 2 -3 7 2 10 11 7 17 1 20 -8 4z"/>
<path d="M5176 6871 c-9 -16 -16 -36 -16 -43 1 -7 10 5 20 26 11 22 18 41 16
44 -3 2 -12 -10 -20 -27z"/>
<path d="M5086 6692 c-9 -18 -14 -38 -10 -44 4 -6 13 3 21 22 19 46 10 63 -11
22z"/>
<path d="M5306 6693 c-6 -14 -5 -15 5 -6 7 7 10 15 7 18 -3 3 -9 -2 -12 -12z"/>
<path d="M5281 6653 c-8 -15 -13 -16 -30 -5 -12 6 -22 12 -24 12 -1 0 -13 -20
-27 -44 -13 -25 -27 -43 -32 -40 -4 3 -4 -5 1 -18 4 -13 16 -25 26 -26 10 -3
15 0 11 7 -6 10 29 91 39 91 3 0 -2 -17 -10 -37 l-15 -38 20 25 c11 14 20 31
20 38 0 6 4 12 10 12 5 0 14 9 20 20 13 25 5 27 -9 3z"/>
<path d="M2280 6646 c0 -2 8 -10 18 -17 15 -13 16 -12 3 4 -13 16 -21 21 -21
13z"/>
<path d="M5091 6508 l-11 -32 25 24 c28 26 32 40 11 40 -8 0 -19 -14 -25 -32z"/>
<path d="M1817 6361 c-2 -10 -1 -24 3 -31 6 -10 19 17 20 43 0 15 -18 6 -23
-12z"/>
<path d="M4390 6299 c0 -5 5 -7 10 -4 6 3 10 8 10 11 0 2 -4 4 -10 4 -5 0 -10
-5 -10 -11z"/>
<path d="M4650 6270 c-8 -5 -10 -10 -5 -10 6 0 17 5 25 10 8 5 11 10 5 10 -5
0 -17 -5 -25 -10z"/>
<path d="M4470 6259 c23 -10 24 -11 8 -23 -17 -12 -15 -26 4 -26 5 0 6 5 2 12
-5 7 -3 8 5 4 7 -5 10 -15 7 -23 -3 -8 -2 -12 3 -8 5 3 29 -29 53 -71 24 -42
48 -84 53 -93 8 -14 16 -16 33 -10 26 10 28 6 5 -17 -16 -16 -16 -18 5 -34 29
-24 28 -28 -5 -23 l-28 5 24 -17 c18 -14 20 -19 10 -26 -8 -5 -9 -9 -4 -9 6 1
18 7 29 15 18 14 18 16 1 51 -13 27 -14 39 -5 48 9 8 11 8 8 -3 -2 -7 2 -15 8
-18 15 -5 11 32 -5 51 -20 24 -8 19 34 -14 28 -22 42 -27 49 -20 8 8 0 21 -29
46 -40 34 -41 43 -4 24 15 -9 19 -7 19 5 0 10 -5 13 -12 9 -7 -4 -10 -3 -5 1
12 14 47 16 48 2 0 -6 4 -3 9 8 13 29 12 35 -5 35 -8 0 -15 8 -14 18 0 10 3
12 6 5 2 -7 14 -13 24 -13 35 0 12 16 -68 48 -114 44 -145 53 -197 54 -25 0
-49 4 -52 9 -3 5 -13 9 -22 8 -11 0 -8 -4 8 -10z"/>
<path d="M3950 6250 c0 -6 7 -10 15 -10 8 0 15 2 15 4 0 2 -7 6 -15 10 -8 3
-15 1 -15 -4z"/>
<path d="M4000 6230 c0 -5 5 -10 11 -10 5 0 7 5 4 10 -3 6 -8 10 -11 10 -2 0
-4 -4 -4 -10z"/>
<path d="M4400 6213 c0 -21 17 -23 34 -4 16 18 16 19 -8 17 -14 0 -26 -6 -26
-13z"/>
<path d="M4036 6208 c3 -5 10 -6 15 -3 13 9 11 12 -6 12 -8 0 -12 -4 -9 -9z"/>
<path d="M4806 6212 c-2 -4 4 -13 15 -20 22 -14 25 -7 5 14 -8 8 -17 11 -20 6z"/>
<path d="M4309 6165 c-1 -3 -2 -10 -3 -16 0 -6 -16 -23 -35 -38 -25 -21 -31
-30 -21 -36 8 -5 11 -4 7 2 -4 6 8 20 26 31 33 19 34 19 72 1 47 -23 45 -23
45 -2 0 9 -3 13 -7 10 -3 -4 -19 7 -35 25 -15 17 -28 26 -28 20 0 -7 -5 -12
-11 -12 -5 0 -7 5 -4 10 3 6 4 10 1 10 -3 0 -7 -2 -7 -5z"/>
<path d="M4370 6152 c0 -12 19 -26 26 -19 2 2 -2 10 -11 17 -9 8 -15 8 -15 2z"/>
<path d="M4335 6090 c-3 -5 -1 -10 4 -10 6 0 11 5 11 10 0 6 -2 10 -4 10 -3 0
-8 -4 -11 -10z"/>
<path d="M4480 6090 c0 -5 5 -10 11 -10 5 0 7 5 4 10 -3 6 -8 10 -11 10 -2 0
-4 -4 -4 -10z"/>
<path d="M4165 6038 c-113 -77 -325 -230 -325 -234 0 -2 18 8 40 22 24 16 44
23 49 18 14 -16 106 -158 113 -176 9 -22 12 -22 63 -2 22 8 48 17 58 21 15 5
16 8 5 15 -10 7 -9 8 5 4 22 -7 87 23 87 41 0 7 -7 10 -17 6 -15 -5 -16 -3 -6
7 10 11 16 10 32 -4 19 -17 20 -17 30 2 6 11 8 22 5 24 -2 3 2 11 11 18 9 7
15 8 15 2 0 -6 -6 -13 -12 -15 -10 -4 -9 -6 1 -6 11 -1 11 -4 1 -16 -8 -9 -9
-15 -2 -15 6 0 14 5 17 10 4 6 11 8 16 5 5 -4 15 -3 21 1 9 6 5 10 -12 15 -24
7 -24 7 5 8 24 1 27 3 15 11 -11 8 -8 9 13 4 l27 -6 0 135 c0 75 -4 138 -9
141 -4 3 -6 -6 -3 -21 5 -25 4 -26 -34 -20 -21 4 -65 9 -97 13 -43 5 -57 10
-53 20 7 18 10 20 -59 -28z m235 -198 c-8 -5 -19 -10 -25 -10 -5 0 -3 5 5 10
8 5 20 10 25 10 6 0 3 -5 -5 -10z m-260 -140 c0 -5 -6 -12 -12 -16 -7 -4 -10
-4 -6 1 4 4 3 14 -4 22 -8 11 -7 12 6 7 9 -3 16 -10 16 -14z"/>
<path d="M3418 6053 c12 -2 32 -2 45 0 12 2 2 4 -23 4 -25 0 -35 -2 -22 -4z"/>
<path d="M4510 6046 c0 -2 8 -10 18 -17 15 -13 16 -12 3 4 -13 16 -21 21 -21
13z"/>
<path d="M4795 5989 c-9 -13 -12 -10 70 -52 115 -57 196 -78 325 -84 82 -3
111 -1 100 6 -8 6 -40 11 -72 11 -117 0 -268 44 -370 107 -43 26 -45 27 -53
12z"/>
<path d="M4705 5970 c3 -5 8 -10 11 -10 2 0 4 5 4 10 0 6 -5 10 -11 10 -5 0
-7 -4 -4 -10z"/>
<path d="M4490 5900 c0 -40 4 -70 10 -70 6 0 10 4 10 9 0 5 16 15 35 21 19 6
35 13 35 14 0 1 -20 24 -45 49 l-45 47 0 -70z m26 13 c-4 -10 -2 -13 8 -10 8
3 20 0 26 -8 9 -11 5 -17 -18 -29 l-29 -15 1 44 c0 24 4 41 9 38 5 -3 6 -12 3
-20z"/>
<path d="M4520 5879 c0 -5 5 -7 10 -4 6 3 10 8 10 11 0 2 -4 4 -10 4 -5 0 -10
-5 -10 -11z"/>
<path d="M4608 5863 c7 -3 16 -2 19 1 4 3 -2 6 -13 5 -11 0 -14 -3 -6 -6z"/>
<path d="M4597 5837 c-41 -18 -50 -19 -57 -7 -8 12 -10 10 -10 -7 0 -24 -11
-28 -62 -24 -29 2 -38 -13 -15 -23 16 -8 -23 0 -45 9 -11 4 -18 3 -18 -3 0 -6
8 -12 18 -15 12 -2 7 -8 -20 -22 -41 -20 -53 -40 -15 -26 12 5 51 22 87 38 36
16 81 36 100 43 19 8 50 22 68 32 54 30 72 9 97 -110 95 -445 150 -693 153
-680 2 8 -9 68 -23 134 -15 65 -33 153 -40 194 -12 64 -76 373 -90 435 -4 19
-53 56 -72 54 -4 -1 -30 -10 -56 -22z"/>
<path d="M4734 5820 c3 -14 17 -79 32 -145 14 -66 43 -203 65 -305 47 -218 59
-274 65 -315 5 -32 41 -190 54 -240 26 -95 1 44 -65 365 -110 536 -134 643
-146 654 -7 8 -9 4 -5 -14z"/>
<path d="M4640 5799 c-12 -9 -12 -10 4 -5 11 4 23 1 28 -6 6 -10 8 -8 8 5 0
19 -18 22 -40 6z"/>
<path d="M4889 5797 c6 -6 57 -10 121 -10 61 0 113 -4 116 -8 3 -5 -5 -9 -18
-9 -13 -1 -36 -7 -53 -16 l-30 -14 35 4 c19 2 53 12 75 22 l40 17 -30 9 c-45
13 -269 18 -256 5z"/>
<path d="M5295 5805 c-5 -2 -22 -6 -37 -9 -48 -11 -32 -27 22 -24 37 2 50 7
48 17 -3 15 -16 22 -33 16z"/>
<path d="M4548 5763 c-32 -15 -58 -32 -58 -40 0 -7 5 -13 10 -13 6 0 9 5 8 11
-2 6 15 18 37 26 42 17 86 44 70 42 -6 0 -36 -12 -67 -26z"/>
<path d="M3625 5739 c-33 -22 -71 -52 -85 -66 -16 -16 -2 -10 37 18 35 23 65
40 68 37 3 -2 -53 -47 -125 -98 -71 -52 -130 -95 -130 -97 0 -5 5 -2 145 93
66 45 129 92 140 105 11 13 13 18 5 12 -8 -7 -19 -13 -24 -13 -6 1 3 12 19 25
47 39 16 29 -50 -16z"/>
<path d="M5150 5749 c-31 -21 -37 -28 -20 -23 28 8 69 35 70 47 0 10 -1 10
-50 -24z"/>
<path d="M4681 5754 c0 -11 3 -14 6 -6 3 7 2 16 -1 19 -3 4 -6 -2 -5 -13z"/>
<path d="M4978 5763 c6 -2 18 -2 25 0 6 3 1 5 -13 5 -14 0 -19 -2 -12 -5z"/>
<path d="M4320 5710 c-9 -6 -10 -10 -3 -10 6 0 15 5 18 10 8 12 4 12 -15 0z"/>
<path d="M4691 5704 c0 -11 3 -14 6 -6 3 7 2 16 -1 19 -3 4 -6 -2 -5 -13z"/>
<path d="M4408 5705 c-3 -3 -72 -35 -154 -70 -142 -62 -158 -74 -134 -99 5 -5
7 -1 4 10 -4 16 8 25 78 53 46 19 110 47 143 62 55 26 61 27 67 11 5 -12 7
-10 7 11 1 27 -1 31 -11 22z"/>
<path d="M5290 5685 c-23 -25 -23 -25 -4 -40 29 -22 34 -18 34 25 0 22 -1 40
-3 40 -2 0 -14 -11 -27 -25z"/>
<path d="M4265 5690 c-13 -6 -15 -9 -5 -9 8 0 22 4 30 9 18 12 2 12 -25 0z"/>
<path d="M5200 5690 c19 -13 30 -13 30 0 0 6 -10 10 -22 10 -19 0 -20 -2 -8
-10z"/>
<path d="M3445 5605 c-33 -24 -77 -54 -97 -65 -21 -11 -38 -25 -38 -30 0 -9
118 68 175 115 49 40 25 28 -40 -20z"/>
<path d="M4130 5635 c-14 -8 -20 -14 -15 -14 6 0 21 6 35 14 14 8 21 14 15 14
-5 0 -21 -6 -35 -14z"/>
<path d="M4413 5610 c0 -25 2 -35 4 -22 2 12 2 32 0 45 -2 12 -4 2 -4 -23z"/>
<path d="M5135 5598 l-40 -43 43 40 c23 21 42 40 42 42 0 8 -9 0 -45 -39z"/>
<path d="M4050 5622 c0 -12 19 -26 26 -19 2 2 -2 10 -11 17 -9 8 -15 8 -15 2z"/>
<path d="M3980 5570 c-8 -5 -10 -10 -5 -10 6 0 17 5 25 10 8 5 11 10 5 10 -5
0 -17 -5 -25 -10z"/>
<path d="M5354 5546 c-9 -20 -9 -26 2 -30 10 -4 14 3 14 24 0 36 -2 37 -16 6z"/>
<path d="M3810 5495 c-14 -8 -20 -14 -15 -14 6 0 21 6 35 14 14 8 21 14 15 14
-5 0 -21 -6 -35 -14z"/>
<path d="M5331 5484 c0 -11 3 -14 6 -6 3 7 2 16 -1 19 -3 4 -6 -2 -5 -13z"/>
<path d="M5357 5472 c-4 -19 -11 -31 -17 -27 -5 3 -10 1 -10 -4 0 -6 5 -11 11
-11 7 0 9 -10 7 -24 -3 -14 -2 -30 3 -37 4 -7 10 11 14 43 8 66 3 110 -8 60z"/>
<path d="M3244 5468 l-19 -21 28 18 c28 18 33 25 19 25 -5 0 -17 -10 -28 -22z"/>
<path d="M3750 5470 c-8 -5 -10 -10 -5 -10 6 0 17 5 25 10 8 5 11 10 5 10 -5
0 -17 -5 -25 -10z"/>
<path d="M3065 5339 c-64 -48 -65 -55 -2 -14 31 21 57 39 57 41 0 10 -19 1
-55 -27z"/>
<path d="M5316 5338 c-4 -13 -13 -105 -25 -278 -4 -52 -4 -106 -1 -120 4 -14
10 28 14 95 4 66 11 164 14 218 7 92 6 113 -2 85z"/>
<path d="M5341 5308 c1 -18 -1 -58 -5 -88 -4 -35 -3 -49 2 -40 15 24 25 160
12 160 -6 0 -10 -15 -9 -32z"/>
<path d="M5880 5281 c0 -11 63 -52 69 -45 6 5 -49 53 -61 54 -5 0 -8 -4 -8 -9z"/>
<path d="M2937 5219 c-26 -17 -50 -35 -53 -41 -3 -5 19 7 50 28 50 33 63 44
53 44 -2 0 -25 -14 -50 -31z"/>
<path d="M6015 5181 c2 -4 25 -22 52 -40 l48 -34 -38 40 c-21 22 -44 40 -52
40 -8 0 -12 -3 -10 -6z"/>
<path d="M6186 5062 c-3 -6 -1 -14 5 -17 15 -10 25 3 12 16 -7 7 -13 7 -17 1z"/>
<path d="M4193 5043 c-53 -21 85 -130 205 -163 58 -15 86 -6 78 26 -8 30 6 31
42 4 17 -13 35 -18 45 -14 18 7 23 24 7 24 -5 0 -10 -5 -10 -10 0 -6 -7 -6
-19 2 -10 6 -17 17 -14 24 2 7 -5 17 -16 23 -26 14 -31 14 -31 -4 0 -21 -7
-19 -62 16 -92 59 -185 89 -225 72z"/>
<path d="M5322 5010 c0 -19 2 -27 5 -17 2 9 2 25 0 35 -3 9 -5 1 -5 -18z"/>
<path d="M6245 5005 c16 -13 31 -22 34 -20 5 6 -41 44 -54 44 -5 0 3 -11 20
-24z"/>
<path d="M4881 4994 c0 -11 3 -14 6 -6 3 7 2 16 -1 19 -3 4 -6 -2 -5 -13z"/>
<path d="M4500 4992 c0 -12 48 -37 56 -29 3 3 -8 13 -25 22 -17 8 -31 12 -31
7z"/>
<path d="M4892 4950 c0 -14 2 -19 5 -12 2 6 2 18 0 25 -3 6 -5 1 -5 -13z"/>
<path d="M4206 4942 c-8 -13 85 -72 148 -94 53 -18 102 -23 130 -12 31 12 15
21 -47 26 -46 4 -81 15 -137 44 -41 21 -78 40 -82 42 -3 2 -9 -1 -12 -6z"/>
<path d="M4901 4904 c0 -11 3 -14 6 -6 3 7 2 16 -1 19 -3 4 -6 -2 -5 -13z"/>
<path d="M5279 4828 c-2 -37 -1 -64 2 -60 11 12 16 76 9 102 -5 18 -8 6 -11
-42z"/>
<path d="M4962 4760 c0 -14 2 -19 5 -12 2 6 2 18 0 25 -3 6 -5 1 -5 -13z"/>
<path d="M6536 4761 c-4 -5 -2 -12 3 -15 5 -4 12 -2 15 3 4 5 2 12 -3 15 -5 4
-12 2 -15 -3z"/>
<path d="M4971 4704 c0 -11 3 -14 6 -6 3 7 2 16 -1 19 -3 4 -6 -2 -5 -13z"/>
<path d="M3986 4614 c-8 -21 -8 -24 3 -24 5 0 11 9 14 20 6 24 -8 27 -17 4z"/>
<path d="M5292 4555 c0 -16 2 -22 5 -12 2 9 2 23 0 30 -3 6 -5 -1 -5 -18z"/>
<path d="M4020 4556 c0 -16 84 -66 145 -86 65 -22 127 -8 108 23 -3 5 -9 3
-14 -4 -18 -29 -136 4 -206 57 -24 18 -33 21 -33 10z"/>
<path d="M5022 4455 c0 -11 3 -29 8 -40 11 -25 11 1 0 35 -6 20 -8 21 -8 5z"/>
<path d="M5041 4374 c0 -11 3 -14 6 -6 3 7 2 16 -1 19 -3 4 -6 -2 -5 -13z"/>
<path d="M5051 4324 c0 -11 3 -14 6 -6 3 7 2 16 -1 19 -3 4 -6 -2 -5 -13z"/>
<path d="M5530 3580 c12 -8 11 -14 -9 -40 -22 -30 -22 -31 -2 -20 12 6 21 7
21 1 0 -5 -6 -12 -12 -14 -10 -4 -10 -6 0 -6 22 -2 2 -21 -21 -21 -18 0 -19
-2 -7 -10 13 -9 13 -12 -3 -24 -13 -10 -15 -16 -7 -21 19 -12 52 33 57 78 3
23 11 48 17 56 8 11 8 13 0 8 -7 -4 -14 0 -18 8 -3 8 -11 15 -18 15 -9 0 -9
-3 2 -10z"/>
<path d="M6298 3553 c7 -3 16 -2 19 1 4 3 -2 6 -13 5 -11 0 -14 -3 -6 -6z"/>
<path d="M5740 3535 c-10 -12 -10 -15 4 -15 9 0 16 7 16 15 0 8 -2 15 -4 15
-2 0 -9 -7 -16 -15z"/>
<path d="M5564 3503 c-4 -21 -15 -50 -26 -65 -22 -32 -10 -38 17 -8 9 10 20
40 22 65 7 54 -3 60 -13 8z"/>
<path d="M5795 3530 c-3 -5 -1 -10 4 -10 6 0 11 5 11 10 0 6 -2 10 -4 10 -3 0
-8 -4 -11 -10z"/>
<path d="M5615 3520 c3 -5 11 -10 16 -10 6 0 7 5 4 10 -3 6 -11 10 -16 10 -6
0 -7 -4 -4 -10z"/>
<path d="M5836 3451 c-4 -7 -5 -15 -2 -18 9 -9 19 4 14 18 -4 11 -6 11 -12 0z"/>
<path d="M6110 3453 c0 -13 29 -38 35 -31 3 3 -4 13 -15 23 -11 10 -20 13 -20
8z"/>
<path d="M5680 3410 c0 -5 5 -10 11 -10 5 0 7 5 4 10 -3 6 -8 10 -11 10 -2 0
-4 -4 -4 -10z"/>
<path d="M5928 3413 c7 -3 16 -2 19 1 4 3 -2 6 -13 5 -11 0 -14 -3 -6 -6z"/>
<path d="M6200 3406 c0 -9 5 -16 10 -16 6 0 10 4 10 9 0 6 -4 13 -10 16 -5 3
-10 -1 -10 -9z"/>
<path d="M5175 3400 c3 -5 10 -10 16 -10 5 0 9 5 9 10 0 6 -7 10 -16 10 -8 0
-12 -4 -9 -10z"/>
<path d="M5946 3392 c-5 -9 19 -44 26 -36 8 7 -3 44 -13 44 -4 0 -10 -3 -13
-8z"/>
<path d="M5571 3386 c2 -2 22 -6 44 -10 29 -5 36 -4 25 3 -13 10 -79 16 -69 7z"/>
<path d="M5473 3365 c-3 -9 -3 -18 -1 -21 3 -3 8 4 11 16 6 23 -1 27 -10 5z"/>
<path d="M5620 3356 c0 -2 16 -13 35 -25 l35 -21 21 21 c25 25 20 35 -6 15
-16 -11 -24 -11 -52 0 -18 8 -33 12 -33 10z"/>
<path d="M5861 3334 c0 -11 3 -14 6 -6 3 7 2 16 -1 19 -3 4 -6 -2 -5 -13z"/>
<path d="M6161 3341 c-11 -7 -9 -11 9 -21 25 -14 33 -9 24 14 -7 18 -13 19
-33 7z"/>
<path d="M5230 3329 c0 -5 5 -7 10 -4 6 3 10 8 10 11 0 2 -4 4 -10 4 -5 0 -10
-5 -10 -11z"/>
<path d="M5255 3320 c-3 -5 1 -10 9 -10 9 0 16 5 16 10 0 6 -4 10 -9 10 -6 0
-13 -4 -16 -10z"/>
<path d="M6167 3293 c-4 -3 -7 -11 -7 -17 0 -6 5 -5 12 2 6 6 9 14 7 17 -3 3
-9 2 -12 -2z"/>
<path d="M6200 3275 c-7 -8 -21 -15 -31 -15 -10 0 -21 -4 -24 -10 -8 -13 6
-13 39 0 20 7 28 6 36 -8 8 -13 9 -10 4 13 -9 38 -9 38 -24 20z"/>
<path d="M5466 3267 c3 -10 9 -15 12 -12 3 3 0 11 -7 18 -10 9 -11 8 -5 -6z"/>
<path d="M6370 3276 c0 -2 8 -10 18 -17 15 -13 16 -12 3 4 -13 16 -21 21 -21
13z"/>
<path d="M5228 3243 c6 -2 18 -2 25 0 6 3 1 5 -13 5 -14 0 -19 -2 -12 -5z"/>
<path d="M6953 3199 c11 -18 44 -35 52 -27 1 1 -12 13 -31 25 -31 20 -32 20
-21 2z"/>
<path d="M6465 3190 c3 -5 11 -10 16 -10 6 0 7 5 4 10 -3 6 -11 10 -16 10 -6
0 -7 -4 -4 -10z"/>
<path d="M6315 3181 c-3 -5 -1 -12 5 -16 5 -3 10 1 10 9 0 18 -6 21 -15 7z"/>
<path d="M5410 3165 c0 -25 142 -111 163 -99 7 4 9 3 4 -1 -4 -5 2 -18 12 -29
11 -12 20 -24 20 -28 1 -5 3 -8 6 -8 3 0 17 0 33 1 l27 1 -31 9 c-17 5 -38 16
-45 26 -13 15 -12 15 9 4 35 -19 36 -8 2 22 -16 15 -30 25 -30 23 0 -7 -112
45 -142 66 -16 11 -28 16 -28 13z"/>
<path d="M5479 3151 c13 -12 28 -21 34 -21 12 0 11 0 -28 24 l-30 17 24 -20z"/>
<path d="M5660 3140 c0 -5 5 -10 10 -10 6 0 10 5 10 10 0 6 -4 10 -10 10 -5 0
-10 -4 -10 -10z"/>
<path d="M6387 3139 c7 -7 15 -10 18 -7 3 3 -2 9 -12 12 -14 6 -15 5 -6 -5z"/>
<path d="M6430 3140 c-12 -8 -11 -10 7 -10 12 0 25 5 28 10 8 13 -15 13 -35 0z"/>
<path d="M6188 3133 c7 -3 16 -2 19 1 4 3 -2 6 -13 5 -11 0 -14 -3 -6 -6z"/>
<path d="M6315 3130 c-7 -12 2 -12 30 0 19 8 19 9 -2 9 -12 1 -25 -3 -28 -9z"/>
<path d="M6960 3110 c0 -5 5 -10 10 -10 6 0 10 5 10 10 0 6 -4 10 -10 10 -5 0
-10 -4 -10 -10z"/>
<path d="M6560 3101 c0 -6 9 -15 20 -21 13 -7 20 -7 20 -1 0 6 -9 15 -20 21
-13 7 -20 7 -20 1z"/>
<path d="M6380 3090 c-9 -6 -10 -10 -3 -10 6 0 15 5 18 10 8 12 4 12 -15 0z"/>
<path d="M6443 3056 c0 -8 11 -16 24 -19 17 -3 21 -1 13 8 -5 6 -7 15 -3 18 3
4 -3 7 -14 7 -11 0 -20 -6 -20 -14z"/>
<path d="M6230 3030 c0 -5 5 -10 11 -10 5 0 7 5 4 10 -3 6 -8 10 -11 10 -2 0
-4 -4 -4 -10z"/>
<path d="M6400 3000 c-9 -6 -10 -10 -3 -10 6 0 15 5 18 10 8 12 4 12 -15 0z"/>
<path d="M5655 2980 c-16 -4 -22 -8 -12 -9 10 -1 17 -9 17 -22 0 -13 -4 -18
-12 -13 -7 4 -8 3 -4 -5 9 -14 26 -5 26 15 0 8 7 17 15 20 8 4 15 10 15 15 0
10 -2 10 -45 -1z"/>
<path d="M7091 2974 c0 -11 3 -14 6 -6 3 7 2 16 -1 19 -3 4 -6 -2 -5 -13z"/>
<path d="M6423 2963 c-3 -10 -8 -22 -10 -28 -3 -5 3 -1 11 9 16 20 21 36 11
36 -3 0 -8 -8 -12 -17z"/>
<path d="M6560 2930 c-12 -7 -11 -15 9 -54 12 -25 27 -48 32 -52 6 -3 1 13
-11 36 -12 23 -18 49 -15 61 7 22 6 22 -15 9z"/>
<path d="M6870 2930 c0 -5 5 -10 11 -10 5 0 7 5 4 10 -3 6 -8 10 -11 10 -2 0
-4 -4 -4 -10z"/>
<path d="M6425 2890 c-3 -5 -20 -14 -38 -19 -30 -9 -31 -9 -6 -10 15 -1 37 8
50 19 13 10 19 19 12 20 -6 0 -15 -4 -18 -10z"/>
<path d="M5660 2880 c0 -5 5 -10 11 -10 5 0 7 5 4 10 -3 6 -8 10 -11 10 -2 0
-4 -4 -4 -10z"/>
<path d="M5782 2828 c20 -28 23 -30 26 -14 3 11 -4 26 -14 33 -31 23 -36 14
-12 -19z"/>
<path d="M6123 2848 c18 -6 32 -7 38 -1 6 6 -4 10 -28 10 -38 1 -38 1 -10 -9z"/>
<path d="M6255 2798 c4 -13 12 -27 17 -33 5 -6 5 1 -1 16 -5 15 -7 30 -4 33 4
3 1 6 -6 6 -8 0 -10 -8 -6 -22z"/>
<path d="M5680 2800 c8 -5 22 -10 30 -10 13 0 13 1 0 10 -8 5 -22 10 -30 10
-13 0 -13 -1 0 -10z"/>
<path d="M6045 2790 c4 -6 11 -8 16 -5 14 9 11 15 -7 15 -8 0 -12 -5 -9 -10z"/>
<path d="M6527 2783 c-4 -3 -7 -11 -7 -17 0 -6 5 -5 12 2 6 6 9 14 7 17 -3 3
-9 2 -12 -2z"/>
<path d="M5850 2760 c0 -5 11 -12 25 -16 14 -3 25 -12 25 -18 0 -14 41 -56 54
-56 5 0 5 7 2 16 -3 9 -2 12 4 9 6 -4 9 -12 8 -20 -3 -14 131 -145 147 -144 6
0 4 3 -2 6 -20 8 -15 41 8 53 11 7 19 14 16 17 -3 2 -14 -1 -25 -8 -18 -11
-24 -10 -41 5 -12 11 -21 25 -21 33 0 7 -5 13 -11 13 -5 0 -7 -4 -4 -10 4 -6
-1 -7 -12 -3 -27 9 -43 24 -38 34 3 4 0 18 -7 31 -7 13 -13 24 -14 26 -1 1 -9
0 -18 -4 -9 -3 -13 -11 -10 -16 4 -6 1 -8 -7 -6 -8 3 -13 11 -11 18 2 7 -3 17
-10 21 -7 4 -9 11 -5 16 4 4 18 1 30 -6 20 -13 21 -13 8 2 -15 18 -91 24 -91
7z"/>
<path d="M6226 2748 c4 -13 13 -28 21 -34 20 -14 13 -60 -9 -56 -19 3 -18 -25
1 -38 10 -6 9 -10 -5 -18 -15 -9 -11 -10 19 -5 34 5 37 4 30 -13 -6 -17 -5
-17 10 -6 9 8 21 11 27 7 17 -11 11 10 -13 42 -13 18 -34 57 -47 87 -22 54
-49 79 -34 34z"/>
<path d="M5802 2705 c15 -14 33 -25 40 -25 6 0 -3 11 -22 25 -19 14 -36 25
-39 25 -3 0 6 -11 21 -25z"/>
<path d="M6301 2673 c5 -15 19 -39 30 -53 20 -24 20 -24 0 12 -12 20 -20 42
-19 48 2 7 -3 15 -9 17 -10 3 -10 -2 -2 -24z"/>
<path d="M6334 2684 c3 -9 6 -21 6 -27 0 -8 3 -8 11 0 13 13 5 43 -12 43 -6 0
-8 -7 -5 -16z"/>
<path d="M5886 2655 c10 -8 26 -14 34 -15 8 0 2 7 -14 15 -36 19 -45 19 -20 0z"/>
<path d="M6180 2651 c0 -5 -3 -18 -6 -28 -5 -16 -4 -16 10 1 18 23 20 36 6 36
-5 0 -10 -4 -10 -9z"/>
<path d="M6070 2625 c0 -8 7 -15 15 -15 9 0 12 6 9 15 -4 8 -10 15 -15 15 -5
0 -9 -7 -9 -15z"/>
<path d="M6358 2633 c7 -3 16 -2 19 1 4 3 -2 6 -13 5 -11 0 -14 -3 -6 -6z"/>
<path d="M5950 2620 c0 -7 -8 -9 -22 -4 -21 6 -21 5 4 -15 19 -15 34 -19 57
-15 17 4 28 11 25 16 -4 6 -21 7 -38 4 -19 -4 -26 -3 -17 3 9 6 10 11 2 15 -6
4 -11 2 -11 -4z"/>
<path d="M5836 2605 c10 -8 24 -14 29 -14 6 0 1 6 -9 14 -11 8 -24 15 -30 15
-5 0 -1 -7 10 -15z"/>
<path d="M5932 2573 c9 -10 18 -25 21 -33 4 -10 6 -11 6 -2 1 7 6 10 11 7 6
-4 30 -3 53 1 41 7 41 7 14 15 -16 4 -35 5 -42 2 -8 -2 -29 2 -46 11 -30 15
-31 15 -17 -1z"/>
<path d="M6140 2581 c0 -5 5 -13 10 -16 6 -3 10 -2 10 4 0 5 -4 13 -10 16 -5
3 -10 2 -10 -4z"/>
<path d="M6120 2565 c0 -5 5 -17 10 -25 5 -8 10 -10 10 -5 0 6 -5 17 -10 25
-5 8 -10 11 -10 5z"/>
<path d="M5850 2550 c0 -6 -12 -8 -27 -5 -27 5 -28 5 -4 -5 16 -7 28 -7 34 -1
5 5 17 7 26 4 14 -4 14 -3 1 6 -19 14 -30 14 -30 1z"/>
<path d="M5875 2500 c3 -5 11 -10 16 -10 6 0 7 5 4 10 -3 6 -11 10 -16 10 -6
0 -7 -4 -4 -10z"/>
<path d="M2472 3135 c-6 -14 -8 -25 -4 -25 4 0 12 11 19 25 6 14 8 25 4 25 -4
0 -13 -11 -19 -25z"/>
<path d="M2910 2734 c0 -8 5 -12 10 -9 6 4 8 11 5 16 -9 14 -15 11 -15 -7z"/>
<path d="M1610 2721 c0 -5 7 -12 16 -15 14 -5 15 -4 4 9 -14 17 -20 19 -20 6z"/>
<path d="M3205 2520 c3 -5 8 -10 11 -10 2 0 4 5 4 10 0 6 -5 10 -11 10 -5 0
-7 -4 -4 -10z"/>
<path d="M3156 2438 c6 -16 54 -52 60 -45 2 2 -11 16 -31 31 -19 15 -32 21
-29 14z"/>
<path d="M3318 2343 c7 -3 16 -2 19 1 4 3 -2 6 -13 5 -11 0 -14 -3 -6 -6z"/>
<path d="M3520 2281 c0 -5 5 -13 10 -16 6 -3 10 -2 10 4 0 5 -4 13 -10 16 -5
3 -10 2 -10 -4z"/>
<path d="M1927 1853 c-10 -10 -8 -23 4 -23 5 0 7 5 3 12 -5 8 -2 9 9 5 9 -3
19 -2 22 3 7 11 -28 14 -38 3z"/>
<path d="M1844 1784 c-18 -14 -18 -15 4 -4 12 6 22 13 22 15 0 8 -5 6 -26 -11z"/>
<path d="M1807 1754 c-11 -11 3 -24 18 -18 8 4 12 10 9 15 -6 11 -18 12 -27 3z"/>
<path d="M2415 1360 c3 -5 8 -10 11 -10 2 0 4 5 4 10 0 6 -5 10 -11 10 -5 0
-7 -4 -4 -10z"/>
<path d="M2827 1833 c-4 -3 -7 -11 -7 -17 0 -6 5 -5 12 2 6 6 9 14 7 17 -3 3
-9 2 -12 -2z"/>
<path d="M3020 1718 c0 -25 3 -29 10 -18 13 20 13 50 0 50 -5 0 -10 -15 -10
-32z"/>
</g>
</svg>
