<?xml version="1.0" standalone="no"?>
<!DOCTYPE svg PUBLIC "-//W3C//DTD SVG 20010904//EN"
 "http://www.w3.org/TR/2001/REC-SVG-20010904/DTD/svg10.dtd">
<svg version="1.0" xmlns="http://www.w3.org/2000/svg"
 width="128.000000pt" height="128.000000pt" viewBox="0 0 128.000000 128.000000"
 preserveAspectRatio="xMidYMid meet">
<metadata>
Created by potrace 1.14, written by Peter Selinger 2001-2017
</metadata>
<g transform="translate(0.000000,128.000000) scale(0.100000,-0.100000)"
fill="#000000" stroke="none">
<path d="M538 1275 c-3 -3 -34 -14 -69 -23 -46 -12 -65 -22 -67 -36 -3 -14 1
-17 16 -12 11 4 30 9 41 11 12 2 25 6 30 9 9 6 22 -37 26 -85 2 -23 -2 -26
-51 -37 -30 -7 -72 -25 -93 -39 -40 -26 -46 -39 -55 -115 -7 -57 -16 -78 -31
-72 -8 3 -21 -6 -31 -21 -16 -25 -16 -27 10 -53 29 -31 34 -57 11 -66 -8 -3
-15 -1 -15 4 0 21 -18 9 -19 -12 -1 -13 -3 -67 -6 -120 -3 -73 -10 -108 -25
-139 -12 -22 -19 -47 -16 -55 3 -7 -10 -32 -29 -54 -22 -26 -32 -47 -28 -57 5
-12 3 -14 -7 -8 -10 6 -30 -10 -71 -55 l-57 -64 22 -17 21 -17 -25 -28 c-15
-15 -19 -25 -10 -22 9 3 24 -8 38 -29 21 -31 39 -38 84 -35 10 1 18 -5 18 -13
0 -23 15 -18 30 10 9 17 19 23 31 20 12 -4 30 12 65 62 29 40 43 68 36 71 -19
6 -14 24 6 18 12 -3 25 7 44 34 20 29 35 40 53 40 18 0 25 -5 25 -20 0 -25 14
-25 50 0 16 12 35 17 45 14 15 -6 27 -8 73 -13 7 0 17 -12 22 -26 7 -19 17
-25 40 -25 40 0 112 32 106 47 -3 6 8 16 24 22 28 9 32 7 71 -39 76 -90 119
-79 144 35 6 25 6 148 1 265 -1 29 4 37 27 48 24 12 28 19 25 43 -4 24 0 31
19 35 12 4 21 9 19 13 -3 4 4 7 15 7 11 0 17 -6 15 -12 -2 -6 14 -1 37 12 23
12 54 24 70 26 15 2 27 8 27 14 -1 8 -11 8 -69 -1 -14 -3 -31 1 -38 7 -10 8
-13 7 -13 -4 0 -8 -6 -15 -12 -16 -56 -7 -63 -10 -60 -26 2 -9 -1 -16 -6 -16
-14 0 -32 90 -18 90 6 1 -2 7 -19 14 -16 7 -37 12 -46 10 -12 -2 -22 19 -42
84 -51 171 -107 262 -160 262 -14 0 -29 5 -32 11 -5 7 -25 8 -56 4 -35 -5 -49
-3 -49 5 0 7 -6 10 -14 7 -14 -6 -46 56 -46 88 0 8 -4 15 -10 15 -5 0 -9 5 -7
12 2 12 -25 23 -35 13z m192 -236 c-12 -30 -21 -55 -20 -57 1 -2 -1 -6 -3 -9
-3 -2 -8 5 -12 18 -5 15 -2 25 9 31 9 5 16 18 16 29 0 18 21 51 28 44 1 -1 -7
-27 -18 -56z m274 -301 c-4 -13 -7 -28 -7 -35 0 -7 -4 -10 -9 -7 -15 10 -9 64
8 64 11 0 14 -6 8 -22z m19 -151 c-3 -5 -9 -3 -14 4 -4 7 -5 17 -2 22 3 5 9 3
14 -4 4 -7 5 -17 2 -22z"/>
<path d="M1070 746 c0 -2 7 -7 16 -10 8 -3 12 -2 9 4 -6 10 -25 14 -25 6z"/>
<path d="M1110 736 c0 -2 7 -7 16 -10 8 -3 12 -2 9 4 -6 10 -25 14 -25 6z"/>
<path d="M1089 633 c-13 -17 -13 -17 6 -3 11 8 22 16 24 17 2 2 0 3 -6 3 -6 0
-17 -8 -24 -17z"/>
</g>
</svg>
